M48
;Layer_Color=9474304
;FILE_FORMAT=2:5
INCH,LZ
;TYPE=PLATED
T1F00S00C0.01200
T2F00S00C0.01500
T3F00S00C0.03543
T4F00S00C0.04331
%
T01
X0038Y00195
X0041
X0044
X0047
X005
X0053
X0056
X00575Y00225
X00515
Y00585
X00545
X00575
Y00945
X00545
X00515
X00485
X00455
X00425
X00395
X010625Y0093
X01085Y00885
X0104
X010625Y0084
X011075
X011525
X011975
X012425
X012875
X0098Y00435
X0095
X00965Y00405
X00995
X010625Y0021
X011075
X01085Y00165
X0104
X010625Y0012
X011075
X0113Y00075
X01175
X0122
X01265
X0131
X01355
X012875Y0012
X012425
X01085Y00075
X0104
X0098Y01155
X0095
X00965Y01185
X00995
X0104Y01245
X01085
X010625Y0129
X0098Y01515
X0095
X00965Y01545
X00995
X0098Y01575
X0095
X010625Y0165
X01085Y01695
X0104
X00995Y01905
X00965
X0098Y01935
X0095
X0056Y01695
X0053
X005
X0047
X0044
X00395Y01365
Y01305
X00425
X00455
X00485
X00515
X00545
X00575
X0056Y01335
X0053
X014225Y0138
Y0147
Y0129
T02
X0214Y0008
Y0013
Y0018
X0228Y0013
X0019Y0175
X0174Y0172
Y0167
Y0162
T03
X0202008Y0015866
Y0020866
Y0025866
X001311Y0087657
Y0097658
Y0107658
Y0117657
Y0127657
Y0137657
Y0147658
Y0157658
X016437Y0152559
X017437
T04
X032061Y0030098
Y0043878
Y0057657
Y0071437
X0340295
Y0057657
Y0043878
Y0030098
Y0131378
Y0145158
Y0158937
Y0172716
X032061
Y0158937
Y0145158
Y0131378
M30
