G04*
G04 #@! TF.GenerationSoftware,Altium Limited,Altium Designer,19.1.8 (144)*
G04*
G04 Layer_Color=2752767*
%FSLAX25Y25*%
%MOIN*%
G70*
G01*
G75*
%ADD69C,0.00200*%
%ADD70C,0.00267*%
D69*
X173570Y151759D02*
Y153359D01*
X175170D01*
Y151759D01*
X173570D01*
X163570D02*
Y153359D01*
X165170D01*
Y151759D01*
X163570D01*
X320610Y70637D02*
X319810Y72237D01*
X321410D01*
X320610Y70637D01*
Y56858D02*
X319810Y58457D01*
X321410D01*
X320610Y56858D01*
Y43078D02*
X319810Y44678D01*
X321410D01*
X320610Y43078D01*
Y29298D02*
X319810Y30898D01*
X321410D01*
X320610Y29298D01*
X340295Y70637D02*
X339495Y72237D01*
X341095D01*
X340295Y70637D01*
Y56858D02*
X339495Y58457D01*
X341095D01*
X340295Y56858D01*
Y43078D02*
X339495Y44678D01*
X341095D01*
X340295Y43078D01*
Y29298D02*
X339495Y30898D01*
X341095D01*
X340295Y29298D01*
X320610Y171916D02*
X319810Y173516D01*
X321410D01*
X320610Y171916D01*
Y158137D02*
X319810Y159737D01*
X321410D01*
X320610Y158137D01*
Y144358D02*
X319810Y145958D01*
X321410D01*
X320610Y144358D01*
Y130578D02*
X319810Y132178D01*
X321410D01*
X320610Y130578D01*
X340295Y171916D02*
X339495Y173516D01*
X341095D01*
X340295Y171916D01*
Y158137D02*
X339495Y159737D01*
X341095D01*
X340295Y158137D01*
Y144358D02*
X339495Y145958D01*
X341095D01*
X340295Y144358D01*
Y130578D02*
X339495Y132178D01*
X341095D01*
X340295Y130578D01*
X201208Y15066D02*
Y16666D01*
X202808D01*
Y15066D01*
X201208D01*
Y20066D02*
Y21666D01*
X202808D01*
Y20066D01*
X201208D01*
Y25066D02*
Y26666D01*
X202808D01*
Y25066D01*
X201208D01*
X12310Y156858D02*
Y158458D01*
X13910D01*
Y156858D01*
X12310D01*
Y146858D02*
Y148458D01*
X13910D01*
Y146858D01*
X12310D01*
Y136857D02*
Y138458D01*
X13910D01*
Y136857D01*
X12310D01*
Y126857D02*
Y128457D01*
X13910D01*
Y126857D01*
X12310D01*
Y116858D02*
Y118457D01*
X13910D01*
Y116858D01*
X12310D01*
Y106858D02*
Y108458D01*
X13910D01*
Y106858D01*
X12310D01*
Y96858D02*
Y98457D01*
X13910D01*
Y96858D01*
X12310D01*
Y86857D02*
Y88458D01*
X13910D01*
Y86857D01*
X12310D01*
X214000Y17200D02*
X214400Y17600D01*
X214800D01*
X214400Y18000D01*
X214800Y18400D01*
X214400D01*
X214000Y18800D01*
X213600Y18400D01*
X213200D01*
X213600Y18000D01*
X213200Y17600D01*
X213600D01*
X214000Y17200D01*
Y7200D02*
X214400Y7600D01*
X214800D01*
X214400Y8000D01*
X214800Y8400D01*
X214400D01*
X214000Y8800D01*
X213600Y8400D01*
X213200D01*
X213600Y8000D01*
X213200Y7600D01*
X213600D01*
X214000Y7200D01*
X174000Y161200D02*
X174400Y161600D01*
X174800D01*
X174400Y162000D01*
X174800Y162400D01*
X174400D01*
X174000Y162800D01*
X173600Y162400D01*
X173200D01*
X173600Y162000D01*
X173200Y161600D01*
X173600D01*
X174000Y161200D01*
Y171200D02*
X174400Y171600D01*
X174800D01*
X174400Y172000D01*
X174800Y172400D01*
X174400D01*
X174000Y172800D01*
X173600Y172400D01*
X173200D01*
X173600Y172000D01*
X173200Y171600D01*
X173600D01*
X174000Y171200D01*
Y166200D02*
X174400Y166600D01*
X174800D01*
X174400Y167000D01*
X174800Y167400D01*
X174400D01*
X174000Y167800D01*
X173600Y167400D01*
X173200D01*
X173600Y167000D01*
X173200Y166600D01*
X173600D01*
X174000Y166200D01*
X19000Y174200D02*
X19400Y174600D01*
X19800D01*
X19400Y175000D01*
X19800Y175400D01*
X19400D01*
X19000Y175800D01*
X18600Y175400D01*
X18200D01*
X18600Y175000D01*
X18200Y174600D01*
X18600D01*
X19000Y174200D01*
X228000Y12200D02*
X228400Y12600D01*
X228800D01*
X228400Y13000D01*
X228800Y13400D01*
X228400D01*
X228000Y13800D01*
X227600Y13400D01*
X227200D01*
X227600Y13000D01*
X227200Y12600D01*
X227600D01*
X228000Y12200D01*
X214000D02*
X214400Y12600D01*
X214800D01*
X214400Y13000D01*
X214800Y13400D01*
X214400D01*
X214000Y13800D01*
X213600Y13400D01*
X213200D01*
X213600Y13000D01*
X213200Y12600D01*
X213600D01*
X214000Y12200D01*
X141450Y146200D02*
X141850Y147000D01*
X141450Y147800D01*
X142250Y147400D01*
X143050Y147800D01*
X142650Y147000D01*
X143050Y146200D01*
X142250Y146600D01*
X141450Y146200D01*
Y137200D02*
X141850Y138000D01*
X141450Y138800D01*
X142250Y138400D01*
X143050Y138800D01*
X142650Y138000D01*
X143050Y137200D01*
X142250Y137600D01*
X141450Y137200D01*
Y128200D02*
X141850Y129000D01*
X141450Y129800D01*
X142250Y129400D01*
X143050Y129800D01*
X142650Y129000D01*
X143050Y128200D01*
X142250Y128600D01*
X141450Y128200D01*
X134700Y6700D02*
X135100Y7500D01*
X134700Y8300D01*
X135500Y7900D01*
X136300Y8300D01*
X135900Y7500D01*
X136300Y6700D01*
X135500Y7100D01*
X134700Y6700D01*
X130200D02*
X130600Y7500D01*
X130200Y8300D01*
X131000Y7900D01*
X131800Y8300D01*
X131400Y7500D01*
X131800Y6700D01*
X131000Y7100D01*
X130200Y6700D01*
X127950Y83200D02*
X128350Y84000D01*
X127950Y84800D01*
X128750Y84400D01*
X129550Y84800D01*
X129150Y84000D01*
X129550Y83200D01*
X128750Y83600D01*
X127950Y83200D01*
Y11200D02*
X128350Y12000D01*
X127950Y12800D01*
X128750Y12400D01*
X129550Y12800D01*
X129150Y12000D01*
X129550Y11200D01*
X128750Y11600D01*
X127950Y11200D01*
X125700Y6700D02*
X126100Y7500D01*
X125700Y8300D01*
X126500Y7900D01*
X127300Y8300D01*
X126900Y7500D01*
X127300Y6700D01*
X126500Y7100D01*
X125700Y6700D01*
X123450Y83200D02*
X123850Y84000D01*
X123450Y84800D01*
X124250Y84400D01*
X125050Y84800D01*
X124650Y84000D01*
X125050Y83200D01*
X124250Y83600D01*
X123450Y83200D01*
Y11200D02*
X123850Y12000D01*
X123450Y12800D01*
X124250Y12400D01*
X125050Y12800D01*
X124650Y12000D01*
X125050Y11200D01*
X124250Y11600D01*
X123450Y11200D01*
X121200Y6700D02*
X121600Y7500D01*
X121200Y8300D01*
X122000Y7900D01*
X122800Y8300D01*
X122400Y7500D01*
X122800Y6700D01*
X122000Y7100D01*
X121200Y6700D01*
X118950Y83200D02*
X119350Y84000D01*
X118950Y84800D01*
X119750Y84400D01*
X120550Y84800D01*
X120150Y84000D01*
X120550Y83200D01*
X119750Y83600D01*
X118950Y83200D01*
X116700Y6700D02*
X117100Y7500D01*
X116700Y8300D01*
X117500Y7900D01*
X118300Y8300D01*
X117900Y7500D01*
X118300Y6700D01*
X117500Y7100D01*
X116700Y6700D01*
X114450Y83200D02*
X114850Y84000D01*
X114450Y84800D01*
X115250Y84400D01*
X116050Y84800D01*
X115650Y84000D01*
X116050Y83200D01*
X115250Y83600D01*
X114450Y83200D01*
X112200Y6700D02*
X112600Y7500D01*
X112200Y8300D01*
X113000Y7900D01*
X113800Y8300D01*
X113400Y7500D01*
X113800Y6700D01*
X113000Y7100D01*
X112200Y6700D01*
X107700Y168700D02*
X108100Y169500D01*
X107700Y170300D01*
X108500Y169900D01*
X109300Y170300D01*
X108900Y169500D01*
X109300Y168700D01*
X108500Y169100D01*
X107700Y168700D01*
Y123700D02*
X108100Y124500D01*
X107700Y125300D01*
X108500Y124900D01*
X109300Y125300D01*
X108900Y124500D01*
X109300Y123700D01*
X108500Y124100D01*
X107700Y123700D01*
Y87700D02*
X108100Y88500D01*
X107700Y89300D01*
X108500Y88900D01*
X109300Y89300D01*
X108900Y88500D01*
X109300Y87700D01*
X108500Y88100D01*
X107700Y87700D01*
X109950Y83200D02*
X110350Y84000D01*
X109950Y84800D01*
X110750Y84400D01*
X111550Y84800D01*
X111150Y84000D01*
X111550Y83200D01*
X110750Y83600D01*
X109950Y83200D01*
Y20200D02*
X110350Y21000D01*
X109950Y21800D01*
X110750Y21400D01*
X111550Y21800D01*
X111150Y21000D01*
X111550Y20200D01*
X110750Y20600D01*
X109950Y20200D01*
X107700Y15700D02*
X108100Y16500D01*
X107700Y17300D01*
X108500Y16900D01*
X109300Y17300D01*
X108900Y16500D01*
X109300Y15700D01*
X108500Y16100D01*
X107700Y15700D01*
X109950Y11200D02*
X110350Y12000D01*
X109950Y12800D01*
X110750Y12400D01*
X111550Y12800D01*
X111150Y12000D01*
X111550Y11200D01*
X110750Y11600D01*
X109950Y11200D01*
X107700Y6700D02*
X108100Y7500D01*
X107700Y8300D01*
X108500Y7900D01*
X109300Y8300D01*
X108900Y7500D01*
X109300Y6700D01*
X108500Y7100D01*
X107700Y6700D01*
X103200Y168700D02*
X103600Y169500D01*
X103200Y170300D01*
X104000Y169900D01*
X104800Y170300D01*
X104400Y169500D01*
X104800Y168700D01*
X104000Y169100D01*
X103200Y168700D01*
X105450Y164200D02*
X105850Y165000D01*
X105450Y165800D01*
X106250Y165400D01*
X107050Y165800D01*
X106650Y165000D01*
X107050Y164200D01*
X106250Y164600D01*
X105450Y164200D01*
Y128200D02*
X105850Y129000D01*
X105450Y129800D01*
X106250Y129400D01*
X107050Y129800D01*
X106650Y129000D01*
X107050Y128200D01*
X106250Y128600D01*
X105450Y128200D01*
X103200Y123700D02*
X103600Y124500D01*
X103200Y125300D01*
X104000Y124900D01*
X104800Y125300D01*
X104400Y124500D01*
X104800Y123700D01*
X104000Y124100D01*
X103200Y123700D01*
X105450Y92200D02*
X105850Y93000D01*
X105450Y93800D01*
X106250Y93400D01*
X107050Y93800D01*
X106650Y93000D01*
X107050Y92200D01*
X106250Y92600D01*
X105450Y92200D01*
X103200Y87700D02*
X103600Y88500D01*
X103200Y89300D01*
X104000Y88900D01*
X104800Y89300D01*
X104400Y88500D01*
X104800Y87700D01*
X104000Y88100D01*
X103200Y87700D01*
X105450Y83200D02*
X105850Y84000D01*
X105450Y84800D01*
X106250Y84400D01*
X107050Y84800D01*
X106650Y84000D01*
X107050Y83200D01*
X106250Y83600D01*
X105450Y83200D01*
Y20200D02*
X105850Y21000D01*
X105450Y21800D01*
X106250Y21400D01*
X107050Y21800D01*
X106650Y21000D01*
X107050Y20200D01*
X106250Y20600D01*
X105450Y20200D01*
X103200Y15700D02*
X103600Y16500D01*
X103200Y17300D01*
X104000Y16900D01*
X104800Y17300D01*
X104400Y16500D01*
X104800Y15700D01*
X104000Y16100D01*
X103200Y15700D01*
X105450Y11200D02*
X105850Y12000D01*
X105450Y12800D01*
X106250Y12400D01*
X107050Y12800D01*
X106650Y12000D01*
X107050Y11200D01*
X106250Y11600D01*
X105450Y11200D01*
X103200Y6700D02*
X103600Y7500D01*
X103200Y8300D01*
X104000Y7900D01*
X104800Y8300D01*
X104400Y7500D01*
X104800Y6700D01*
X104000Y7100D01*
X103200Y6700D01*
X97200Y192700D02*
X97600Y193500D01*
X97200Y194300D01*
X98000Y193900D01*
X98800Y194300D01*
X98400Y193500D01*
X98800Y192700D01*
X98000Y193100D01*
X97200Y192700D01*
X98700Y189700D02*
X99100Y190500D01*
X98700Y191300D01*
X99500Y190900D01*
X100300Y191300D01*
X99900Y190500D01*
X100300Y189700D01*
X99500Y190100D01*
X98700Y189700D01*
X97200Y156700D02*
X97600Y157500D01*
X97200Y158300D01*
X98000Y157900D01*
X98800Y158300D01*
X98400Y157500D01*
X98800Y156700D01*
X98000Y157100D01*
X97200Y156700D01*
X98700Y153700D02*
X99100Y154500D01*
X98700Y155300D01*
X99500Y154900D01*
X100300Y155300D01*
X99900Y154500D01*
X100300Y153700D01*
X99500Y154100D01*
X98700Y153700D01*
X97200Y150700D02*
X97600Y151500D01*
X97200Y152300D01*
X98000Y151900D01*
X98800Y152300D01*
X98400Y151500D01*
X98800Y150700D01*
X98000Y151100D01*
X97200Y150700D01*
X98700Y117700D02*
X99100Y118500D01*
X98700Y119300D01*
X99500Y118900D01*
X100300Y119300D01*
X99900Y118500D01*
X100300Y117700D01*
X99500Y118100D01*
X98700Y117700D01*
X97200Y114700D02*
X97600Y115500D01*
X97200Y116300D01*
X98000Y115900D01*
X98800Y116300D01*
X98400Y115500D01*
X98800Y114700D01*
X98000Y115100D01*
X97200Y114700D01*
Y42700D02*
X97600Y43500D01*
X97200Y44300D01*
X98000Y43900D01*
X98800Y44300D01*
X98400Y43500D01*
X98800Y42700D01*
X98000Y43100D01*
X97200Y42700D01*
X98700Y39700D02*
X99100Y40500D01*
X98700Y41300D01*
X99500Y40900D01*
X100300Y41300D01*
X99900Y40500D01*
X100300Y39700D01*
X99500Y40100D01*
X98700Y39700D01*
X94200Y192700D02*
X94600Y193500D01*
X94200Y194300D01*
X95000Y193900D01*
X95800Y194300D01*
X95400Y193500D01*
X95800Y192700D01*
X95000Y193100D01*
X94200Y192700D01*
X95700Y189700D02*
X96100Y190500D01*
X95700Y191300D01*
X96500Y190900D01*
X97300Y191300D01*
X96900Y190500D01*
X97300Y189700D01*
X96500Y190100D01*
X95700Y189700D01*
X94200Y156700D02*
X94600Y157500D01*
X94200Y158300D01*
X95000Y157900D01*
X95800Y158300D01*
X95400Y157500D01*
X95800Y156700D01*
X95000Y157100D01*
X94200Y156700D01*
X95700Y153700D02*
X96100Y154500D01*
X95700Y155300D01*
X96500Y154900D01*
X97300Y155300D01*
X96900Y154500D01*
X97300Y153700D01*
X96500Y154100D01*
X95700Y153700D01*
X94200Y150700D02*
X94600Y151500D01*
X94200Y152300D01*
X95000Y151900D01*
X95800Y152300D01*
X95400Y151500D01*
X95800Y150700D01*
X95000Y151100D01*
X94200Y150700D01*
X95700Y117700D02*
X96100Y118500D01*
X95700Y119300D01*
X96500Y118900D01*
X97300Y119300D01*
X96900Y118500D01*
X97300Y117700D01*
X96500Y118100D01*
X95700Y117700D01*
X94200Y114700D02*
X94600Y115500D01*
X94200Y116300D01*
X95000Y115900D01*
X95800Y116300D01*
X95400Y115500D01*
X95800Y114700D01*
X95000Y115100D01*
X94200Y114700D01*
Y42700D02*
X94600Y43500D01*
X94200Y44300D01*
X95000Y43900D01*
X95800Y44300D01*
X95400Y43500D01*
X95800Y42700D01*
X95000Y43100D01*
X94200Y42700D01*
X95700Y39700D02*
X96100Y40500D01*
X95700Y41300D01*
X96500Y40900D01*
X97300Y41300D01*
X96900Y40500D01*
X97300Y39700D01*
X96500Y40100D01*
X95700Y39700D01*
X56700Y57700D02*
X57100Y58500D01*
X56700Y59300D01*
X57500Y58900D01*
X58300Y59300D01*
X57900Y58500D01*
X58300Y57700D01*
X57500Y58100D01*
X56700Y57700D01*
Y129700D02*
X57100Y130500D01*
X56700Y131300D01*
X57500Y130900D01*
X58300Y131300D01*
X57900Y130500D01*
X58300Y129700D01*
X57500Y130100D01*
X56700Y129700D01*
X52200Y18700D02*
X52600Y19500D01*
X52200Y20300D01*
X53000Y19900D01*
X53800Y20300D01*
X53400Y19500D01*
X53800Y18700D01*
X53000Y19100D01*
X52200Y18700D01*
X38700Y135700D02*
X39100Y136500D01*
X38700Y137300D01*
X39500Y136900D01*
X40300Y137300D01*
X39900Y136500D01*
X40300Y135700D01*
X39500Y136100D01*
X38700Y135700D01*
X53700Y129700D02*
X54100Y130500D01*
X53700Y131300D01*
X54500Y130900D01*
X55300Y131300D01*
X54900Y130500D01*
X55300Y129700D01*
X54500Y130100D01*
X53700Y129700D01*
X52200Y168700D02*
X52600Y169500D01*
X52200Y170300D01*
X53000Y169900D01*
X53800Y170300D01*
X53400Y169500D01*
X53800Y168700D01*
X53000Y169100D01*
X52200Y168700D01*
X55200Y18700D02*
X55600Y19500D01*
X55200Y20300D01*
X56000Y19900D01*
X56800Y20300D01*
X56400Y19500D01*
X56800Y18700D01*
X56000Y19100D01*
X55200Y18700D01*
X56700Y21700D02*
X57100Y22500D01*
X56700Y23300D01*
X57500Y22900D01*
X58300Y23300D01*
X57900Y22500D01*
X58300Y21700D01*
X57500Y22100D01*
X56700Y21700D01*
X50700D02*
X51100Y22500D01*
X50700Y23300D01*
X51500Y22900D01*
X52300Y23300D01*
X51900Y22500D01*
X52300Y21700D01*
X51500Y22100D01*
X50700Y21700D01*
X44700Y129700D02*
X45100Y130500D01*
X44700Y131300D01*
X45500Y130900D01*
X46300Y131300D01*
X45900Y130500D01*
X46300Y129700D01*
X45500Y130100D01*
X44700Y129700D01*
X41700D02*
X42100Y130500D01*
X41700Y131300D01*
X42500Y130900D01*
X43300Y131300D01*
X42900Y130500D01*
X43300Y129700D01*
X42500Y130100D01*
X41700Y129700D01*
X55200Y168700D02*
X55600Y169500D01*
X55200Y170300D01*
X56000Y169900D01*
X56800Y170300D01*
X56400Y169500D01*
X56800Y168700D01*
X56000Y169100D01*
X55200Y168700D01*
X44700Y93700D02*
X45100Y94500D01*
X44700Y95300D01*
X45500Y94900D01*
X46300Y95300D01*
X45900Y94500D01*
X46300Y93700D01*
X45500Y94100D01*
X44700Y93700D01*
X43200Y168700D02*
X43600Y169500D01*
X43200Y170300D01*
X44000Y169900D01*
X44800Y170300D01*
X44400Y169500D01*
X44800Y168700D01*
X44000Y169100D01*
X43200Y168700D01*
X50700Y129700D02*
X51100Y130500D01*
X50700Y131300D01*
X51500Y130900D01*
X52300Y131300D01*
X51900Y130500D01*
X52300Y129700D01*
X51500Y130100D01*
X50700Y129700D01*
X46200Y18700D02*
X46600Y19500D01*
X46200Y20300D01*
X47000Y19900D01*
X47800Y20300D01*
X47400Y19500D01*
X47800Y18700D01*
X47000Y19100D01*
X46200Y18700D01*
X47700Y93700D02*
X48100Y94500D01*
X47700Y95300D01*
X48500Y94900D01*
X49300Y95300D01*
X48900Y94500D01*
X49300Y93700D01*
X48500Y94100D01*
X47700Y93700D01*
X50700D02*
X51100Y94500D01*
X50700Y95300D01*
X51500Y94900D01*
X52300Y95300D01*
X51900Y94500D01*
X52300Y93700D01*
X51500Y94100D01*
X50700Y93700D01*
X40200Y18700D02*
X40600Y19500D01*
X40200Y20300D01*
X41000Y19900D01*
X41800Y20300D01*
X41400Y19500D01*
X41800Y18700D01*
X41000Y19100D01*
X40200Y18700D01*
X53700Y57700D02*
X54100Y58500D01*
X53700Y59300D01*
X54500Y58900D01*
X55300Y59300D01*
X54900Y58500D01*
X55300Y57700D01*
X54500Y58100D01*
X53700Y57700D01*
X38700Y93700D02*
X39100Y94500D01*
X38700Y95300D01*
X39500Y94900D01*
X40300Y95300D01*
X39900Y94500D01*
X40300Y93700D01*
X39500Y94100D01*
X38700Y93700D01*
X49200Y168700D02*
X49600Y169500D01*
X49200Y170300D01*
X50000Y169900D01*
X50800Y170300D01*
X50400Y169500D01*
X50800Y168700D01*
X50000Y169100D01*
X49200Y168700D01*
X46200D02*
X46600Y169500D01*
X46200Y170300D01*
X47000Y169900D01*
X47800Y170300D01*
X47400Y169500D01*
X47800Y168700D01*
X47000Y169100D01*
X46200Y168700D01*
X47700Y129700D02*
X48100Y130500D01*
X47700Y131300D01*
X48500Y130900D01*
X49300Y131300D01*
X48900Y130500D01*
X49300Y129700D01*
X48500Y130100D01*
X47700Y129700D01*
X38700D02*
X39100Y130500D01*
X38700Y131300D01*
X39500Y130900D01*
X40300Y131300D01*
X39900Y130500D01*
X40300Y129700D01*
X39500Y130100D01*
X38700Y129700D01*
X52200Y132700D02*
X52600Y133500D01*
X52200Y134300D01*
X53000Y133900D01*
X53800Y134300D01*
X53400Y133500D01*
X53800Y132700D01*
X53000Y133100D01*
X52200Y132700D01*
X50700Y57700D02*
X51100Y58500D01*
X50700Y59300D01*
X51500Y58900D01*
X52300Y59300D01*
X51900Y58500D01*
X52300Y57700D01*
X51500Y58100D01*
X50700Y57700D01*
X41700Y93700D02*
X42100Y94500D01*
X41700Y95300D01*
X42500Y94900D01*
X43300Y95300D01*
X42900Y94500D01*
X43300Y93700D01*
X42500Y94100D01*
X41700Y93700D01*
X49200Y18700D02*
X49600Y19500D01*
X49200Y20300D01*
X50000Y19900D01*
X50800Y20300D01*
X50400Y19500D01*
X50800Y18700D01*
X50000Y19100D01*
X49200Y18700D01*
X53700Y93700D02*
X54100Y94500D01*
X53700Y95300D01*
X54500Y94900D01*
X55300Y95300D01*
X54900Y94500D01*
X55300Y93700D01*
X54500Y94100D01*
X53700Y93700D01*
X56700D02*
X57100Y94500D01*
X56700Y95300D01*
X57500Y94900D01*
X58300Y95300D01*
X57900Y94500D01*
X58300Y93700D01*
X57500Y94100D01*
X56700Y93700D01*
X37200Y18700D02*
X37600Y19500D01*
X37200Y20300D01*
X38000Y19900D01*
X38800Y20300D01*
X38400Y19500D01*
X38800Y18700D01*
X38000Y19100D01*
X37200Y18700D01*
X43200D02*
X43600Y19500D01*
X43200Y20300D01*
X44000Y19900D01*
X44800Y20300D01*
X44400Y19500D01*
X44800Y18700D01*
X44000Y19100D01*
X43200Y18700D01*
X55200Y132700D02*
X55600Y133500D01*
X55200Y134300D01*
X56000Y133900D01*
X56800Y134300D01*
X56400Y133500D01*
X56800Y132700D01*
X56000Y133100D01*
X55200Y132700D01*
D70*
X272950Y125197D02*
G03*
X272950Y125197I-800J0D01*
G01*
X194871Y80020D02*
G03*
X194871Y80020I-800J0D01*
G01*
X290013Y102657D02*
G03*
X290013Y102657I-800J0D01*
G01*
X177808D02*
G03*
X177808Y102657I-800J0D01*
G01*
M02*
