G04*
G04 #@! TF.GenerationSoftware,Altium Limited,Altium Designer,19.1.8 (144)*
G04*
G04 Layer_Color=8388736*
%FSLAX25Y25*%
%MOIN*%
G70*
G01*
G75*
%ADD34R,0.09855X0.09855*%
%ADD35R,0.09855X0.10446*%
%ADD36R,0.04343X0.04147*%
%ADD37R,0.06115X0.04737*%
%ADD38R,0.05524X0.04737*%
%ADD39R,0.04147X0.03753*%
%ADD40R,0.04147X0.04343*%
%ADD41R,0.04737X0.05524*%
%ADD42R,0.07099X0.13792*%
%ADD43R,0.07099X0.05524*%
%ADD44R,0.04934X0.07493*%
%ADD45R,0.07296X0.05524*%
%ADD46R,0.03753X0.04147*%
%ADD47R,0.07493X0.03162*%
%ADD48R,0.05918X0.08477*%
%ADD49C,0.06706*%
%ADD50R,0.06706X0.06706*%
G04:AMPARAMS|DCode=51|XSize=165.48mil|YSize=94.61mil|CornerRadius=0mil|HoleSize=0mil|Usage=FLASHONLY|Rotation=210.000|XOffset=0mil|YOffset=0mil|HoleType=Round|Shape=Round|*
%AMOVALD51*
21,1,0.07087,0.09461,0.00000,0.00000,210.0*
1,1,0.09461,0.03069,0.01772*
1,1,0.09461,-0.03069,-0.01772*
%
%ADD51OVALD51*%

%ADD52O,0.16548X0.09461*%
%ADD53C,0.07493*%
%ADD54O,0.08474X0.04537*%
%ADD55O,0.08474X0.04537*%
%ADD56R,0.06706X0.06706*%
D34*
X267717Y182087D02*
D03*
X285433D02*
D03*
D35*
X181150Y167339D02*
D03*
Y186039D02*
D03*
X221260Y12697D02*
D03*
Y31398D02*
D03*
X177126Y12697D02*
D03*
Y31398D02*
D03*
D36*
X190157Y13091D02*
D03*
Y19193D02*
D03*
X125197Y23130D02*
D03*
Y17028D02*
D03*
X127559Y53248D02*
D03*
Y59350D02*
D03*
X120472D02*
D03*
Y53248D02*
D03*
X127165Y97146D02*
D03*
Y91043D02*
D03*
X120472Y97244D02*
D03*
Y91142D02*
D03*
X127165Y133760D02*
D03*
Y127657D02*
D03*
X120472D02*
D03*
Y133760D02*
D03*
X127165Y165453D02*
D03*
Y171555D02*
D03*
X120079D02*
D03*
Y165453D02*
D03*
X35610Y24961D02*
D03*
Y31063D02*
D03*
X29000Y74000D02*
D03*
Y67898D02*
D03*
X36417Y74016D02*
D03*
Y67913D02*
D03*
Y105413D02*
D03*
Y99311D02*
D03*
X28543Y105315D02*
D03*
Y99213D02*
D03*
X35610Y142657D02*
D03*
Y136555D02*
D03*
X28110Y142657D02*
D03*
Y136555D02*
D03*
X35256Y186260D02*
D03*
Y180157D02*
D03*
X27756Y186260D02*
D03*
Y180157D02*
D03*
D37*
X190157Y33465D02*
D03*
Y26378D02*
D03*
D38*
X116535Y24016D02*
D03*
Y16142D02*
D03*
D39*
X113779Y53445D02*
D03*
Y59153D02*
D03*
X114173Y96949D02*
D03*
Y91240D02*
D03*
X113779Y133563D02*
D03*
Y127854D02*
D03*
X112992Y166043D02*
D03*
Y171752D02*
D03*
D40*
X117008Y31063D02*
D03*
X123110D02*
D03*
D41*
X135827Y79724D02*
D03*
X143701D02*
D03*
Y153543D02*
D03*
X135827D02*
D03*
D42*
X161197Y21945D02*
D03*
X161024Y58858D02*
D03*
X160807Y96555D02*
D03*
Y171102D02*
D03*
Y133602D02*
D03*
D43*
X136000Y31000D02*
D03*
Y21945D02*
D03*
Y12890D02*
D03*
X135827Y67913D02*
D03*
Y58858D02*
D03*
Y49803D02*
D03*
X135610Y105610D02*
D03*
Y96555D02*
D03*
Y87500D02*
D03*
Y180157D02*
D03*
Y171102D02*
D03*
Y162047D02*
D03*
Y142657D02*
D03*
Y133602D02*
D03*
Y124547D02*
D03*
D44*
X115157Y67913D02*
D03*
X126378D02*
D03*
X114567Y105512D02*
D03*
X125787D02*
D03*
X125610Y142657D02*
D03*
X114390D02*
D03*
X125610Y180157D02*
D03*
X114390D02*
D03*
D45*
X105610Y175039D02*
D03*
Y185276D02*
D03*
X45610Y25945D02*
D03*
Y36181D02*
D03*
X46000Y62882D02*
D03*
Y73118D02*
D03*
X45610Y100492D02*
D03*
Y110728D02*
D03*
Y137539D02*
D03*
Y147776D02*
D03*
Y175039D02*
D03*
Y185276D02*
D03*
X105315Y62795D02*
D03*
Y73032D02*
D03*
X105610Y25945D02*
D03*
Y36181D02*
D03*
Y100492D02*
D03*
Y110728D02*
D03*
Y137421D02*
D03*
Y147658D02*
D03*
D46*
X29146Y61000D02*
D03*
X34854D02*
D03*
X28543Y92520D02*
D03*
X34252D02*
D03*
X28146Y130000D02*
D03*
X33854D02*
D03*
X28110Y172658D02*
D03*
X33819D02*
D03*
D47*
X56713Y36063D02*
D03*
Y31063D02*
D03*
Y26063D02*
D03*
X94508Y36063D02*
D03*
Y31063D02*
D03*
Y26063D02*
D03*
X57087Y72913D02*
D03*
Y67913D02*
D03*
Y62913D02*
D03*
X94882Y72913D02*
D03*
Y67913D02*
D03*
Y62913D02*
D03*
X56713Y185158D02*
D03*
Y180157D02*
D03*
Y175157D02*
D03*
X94508Y185158D02*
D03*
Y180157D02*
D03*
Y175157D02*
D03*
X56713Y110610D02*
D03*
Y105610D02*
D03*
Y100610D02*
D03*
X94508Y110610D02*
D03*
Y105610D02*
D03*
Y100610D02*
D03*
X56713Y147658D02*
D03*
Y142657D02*
D03*
Y137657D02*
D03*
X94508Y147658D02*
D03*
Y142657D02*
D03*
Y137657D02*
D03*
D48*
X13110Y184980D02*
D03*
Y175335D02*
D03*
D49*
X174370Y152559D02*
D03*
X13110Y147658D02*
D03*
Y137657D02*
D03*
Y127657D02*
D03*
Y117657D02*
D03*
Y107658D02*
D03*
Y97658D02*
D03*
Y87657D02*
D03*
D50*
X164370Y152559D02*
D03*
D51*
X272150Y125197D02*
D03*
X194071Y80020D02*
D03*
D52*
X289213Y102657D02*
D03*
X177008D02*
D03*
D53*
X320610Y71437D02*
D03*
Y57657D02*
D03*
Y43878D02*
D03*
Y30098D02*
D03*
X340295Y71437D02*
D03*
Y57657D02*
D03*
Y43878D02*
D03*
Y30098D02*
D03*
X320610Y172716D02*
D03*
Y158937D02*
D03*
Y145158D02*
D03*
Y131378D02*
D03*
X340295Y172716D02*
D03*
Y158937D02*
D03*
Y145158D02*
D03*
Y131378D02*
D03*
D54*
X202008Y15866D02*
D03*
Y25866D02*
D03*
D55*
Y20866D02*
D03*
D56*
X13110Y157658D02*
D03*
M02*
