G04*
G04 #@! TF.GenerationSoftware,Altium Limited,Altium Designer,19.1.8 (144)*
G04*
G04 Layer_Physical_Order=2*
G04 Layer_Color=16711680*
%FSLAX25Y25*%
%MOIN*%
G70*
G01*
G75*
%ADD59C,0.05906*%
%ADD60R,0.05906X0.05906*%
G04:AMPARAMS|DCode=61|XSize=157.48mil|YSize=86.61mil|CornerRadius=0mil|HoleSize=0mil|Usage=FLASHONLY|Rotation=210.000|XOffset=0mil|YOffset=0mil|HoleType=Round|Shape=Round|*
%AMOVALD61*
21,1,0.07087,0.08661,0.00000,0.00000,210.0*
1,1,0.08661,0.03069,0.01772*
1,1,0.08661,-0.03069,-0.01772*
%
%ADD61OVALD61*%

%ADD62O,0.15748X0.08661*%
%ADD63C,0.06693*%
%ADD64O,0.07874X0.03937*%
%ADD65O,0.07874X0.03937*%
%ADD66R,0.05906X0.05906*%
%ADD67C,0.03000*%
%ADD68C,0.02400*%
G36*
X60000Y196974D02*
Y3026D01*
X3026D01*
Y196974D01*
X60000D01*
D02*
G37*
G36*
X100971D02*
Y3026D01*
X100500Y3026D01*
X91148D01*
Y196974D01*
X100971D01*
D02*
G37*
G36*
X356974Y196974D02*
X356974Y3026D01*
X102500Y3026D01*
Y196974D01*
X356974Y196974D01*
D02*
G37*
%LPC*%
G36*
X20000Y177508D02*
Y176000D01*
X21508D01*
X21358Y176362D01*
X20926Y176926D01*
X20362Y177358D01*
X20000Y177508D01*
D02*
G37*
G36*
X18000D02*
X17638Y177358D01*
X17074Y176926D01*
X16642Y176362D01*
X16492Y176000D01*
X18000D01*
Y177508D01*
D02*
G37*
G36*
X21508Y174000D02*
X20000D01*
Y172492D01*
X20362Y172642D01*
X20926Y173074D01*
X21358Y173638D01*
X21508Y174000D01*
D02*
G37*
G36*
X18000D02*
X16492D01*
X16642Y173638D01*
X17074Y173074D01*
X17638Y172642D01*
X18000Y172492D01*
Y174000D01*
D02*
G37*
G36*
X17063Y161610D02*
X9157D01*
Y153705D01*
X17063D01*
Y161610D01*
D02*
G37*
G36*
X14110Y151714D02*
Y148658D01*
X17167D01*
X17156Y148742D01*
X16738Y149752D01*
X16072Y150619D01*
X15204Y151285D01*
X14194Y151703D01*
X14110Y151714D01*
D02*
G37*
G36*
X12110D02*
X12026Y151703D01*
X11016Y151285D01*
X10148Y150619D01*
X9483Y149752D01*
X9064Y148742D01*
X9053Y148658D01*
X12110D01*
Y151714D01*
D02*
G37*
G36*
X17167Y146658D02*
X14110D01*
Y143600D01*
X14194Y143612D01*
X15204Y144030D01*
X16072Y144696D01*
X16738Y145563D01*
X17156Y146573D01*
X17167Y146658D01*
D02*
G37*
G36*
X12110D02*
X9053D01*
X9064Y146573D01*
X9483Y145563D01*
X10148Y144696D01*
X11016Y144030D01*
X12026Y143612D01*
X12110Y143600D01*
Y146658D01*
D02*
G37*
G36*
X13110Y141644D02*
X12078Y141508D01*
X11117Y141110D01*
X10291Y140477D01*
X9657Y139651D01*
X9259Y138689D01*
X9123Y137657D01*
X9259Y136626D01*
X9657Y135664D01*
X10291Y134838D01*
X11117Y134205D01*
X12078Y133807D01*
X13110Y133671D01*
X14142Y133807D01*
X15104Y134205D01*
X15929Y134838D01*
X16563Y135664D01*
X16961Y136626D01*
X17097Y137657D01*
X16961Y138689D01*
X16563Y139651D01*
X15929Y140477D01*
X15104Y141110D01*
X14142Y141508D01*
X13110Y141644D01*
D02*
G37*
G36*
Y131644D02*
X12078Y131509D01*
X11117Y131110D01*
X10291Y130477D01*
X9657Y129651D01*
X9259Y128689D01*
X9123Y127657D01*
X9259Y126626D01*
X9657Y125664D01*
X10291Y124838D01*
X11117Y124205D01*
X12078Y123807D01*
X13110Y123671D01*
X14142Y123807D01*
X15104Y124205D01*
X15929Y124838D01*
X16563Y125664D01*
X16961Y126626D01*
X17097Y127657D01*
X16961Y128689D01*
X16563Y129651D01*
X15929Y130477D01*
X15104Y131110D01*
X14142Y131509D01*
X13110Y131644D01*
D02*
G37*
G36*
Y121644D02*
X12078Y121509D01*
X11117Y121110D01*
X10291Y120477D01*
X9657Y119651D01*
X9259Y118689D01*
X9123Y117657D01*
X9259Y116626D01*
X9657Y115664D01*
X10291Y114838D01*
X11117Y114205D01*
X12078Y113806D01*
X13110Y113671D01*
X14142Y113806D01*
X15104Y114205D01*
X15929Y114838D01*
X16563Y115664D01*
X16961Y116626D01*
X17097Y117657D01*
X16961Y118689D01*
X16563Y119651D01*
X15929Y120477D01*
X15104Y121110D01*
X14142Y121509D01*
X13110Y121644D01*
D02*
G37*
G36*
Y111644D02*
X12078Y111509D01*
X11117Y111110D01*
X10291Y110477D01*
X9657Y109651D01*
X9259Y108689D01*
X9123Y107658D01*
X9259Y106626D01*
X9657Y105664D01*
X10291Y104838D01*
X11117Y104205D01*
X12078Y103806D01*
X13110Y103671D01*
X14142Y103806D01*
X15104Y104205D01*
X15929Y104838D01*
X16563Y105664D01*
X16961Y106626D01*
X17097Y107658D01*
X16961Y108689D01*
X16563Y109651D01*
X15929Y110477D01*
X15104Y111110D01*
X14142Y111509D01*
X13110Y111644D01*
D02*
G37*
G36*
X14110Y101714D02*
Y98658D01*
X17167D01*
X17156Y98742D01*
X16738Y99752D01*
X16072Y100619D01*
X15204Y101285D01*
X14194Y101703D01*
X14110Y101714D01*
D02*
G37*
G36*
X12110D02*
X12026Y101703D01*
X11016Y101285D01*
X10148Y100619D01*
X9483Y99752D01*
X9064Y98742D01*
X9053Y98658D01*
X12110D01*
Y101714D01*
D02*
G37*
G36*
X17167Y96658D02*
X14110D01*
Y93600D01*
X14194Y93612D01*
X15204Y94030D01*
X16072Y94696D01*
X16738Y95563D01*
X17156Y96573D01*
X17167Y96658D01*
D02*
G37*
G36*
X12110D02*
X9053D01*
X9064Y96573D01*
X9483Y95563D01*
X10148Y94696D01*
X11016Y94030D01*
X12026Y93612D01*
X12110Y93600D01*
Y96658D01*
D02*
G37*
G36*
X13110Y91644D02*
X12078Y91509D01*
X11117Y91110D01*
X10291Y90477D01*
X9657Y89651D01*
X9259Y88689D01*
X9123Y87657D01*
X9259Y86626D01*
X9657Y85664D01*
X10291Y84838D01*
X11117Y84205D01*
X12078Y83807D01*
X13110Y83671D01*
X14142Y83807D01*
X15104Y84205D01*
X15929Y84838D01*
X16563Y85664D01*
X16961Y86626D01*
X17097Y87657D01*
X16961Y88689D01*
X16563Y89651D01*
X15929Y90477D01*
X15104Y91110D01*
X14142Y91509D01*
X13110Y91644D01*
D02*
G37*
G36*
X175000Y174508D02*
Y173000D01*
X176508D01*
X176358Y173362D01*
X175926Y173926D01*
X175362Y174358D01*
X175000Y174508D01*
D02*
G37*
G36*
X173000D02*
X172638Y174358D01*
X172074Y173926D01*
X171642Y173362D01*
X171492Y173000D01*
X173000D01*
Y174508D01*
D02*
G37*
G36*
X340295Y177101D02*
X339161Y176951D01*
X338103Y176513D01*
X337195Y175817D01*
X336499Y174908D01*
X336061Y173851D01*
X335911Y172716D01*
X336061Y171582D01*
X336499Y170525D01*
X337195Y169617D01*
X338103Y168920D01*
X339161Y168482D01*
X340295Y168333D01*
X341430Y168482D01*
X342487Y168920D01*
X343395Y169617D01*
X344092Y170525D01*
X344530Y171582D01*
X344679Y172716D01*
X344530Y173851D01*
X344092Y174908D01*
X343395Y175817D01*
X342487Y176513D01*
X341430Y176951D01*
X340295Y177101D01*
D02*
G37*
G36*
X320610D02*
X319476Y176951D01*
X318418Y176513D01*
X317510Y175817D01*
X316814Y174908D01*
X316376Y173851D01*
X316226Y172716D01*
X316376Y171582D01*
X316814Y170525D01*
X317510Y169617D01*
X318418Y168920D01*
X319476Y168482D01*
X320610Y168333D01*
X321745Y168482D01*
X322802Y168920D01*
X323710Y169617D01*
X324407Y170525D01*
X324845Y171582D01*
X324994Y172716D01*
X324845Y173851D01*
X324407Y174908D01*
X323710Y175817D01*
X322802Y176513D01*
X321745Y176951D01*
X320610Y177101D01*
D02*
G37*
G36*
X176508Y171000D02*
X171492D01*
X171642Y170638D01*
X172074Y170074D01*
X172429Y169802D01*
X172450Y169758D01*
Y169242D01*
X172429Y169198D01*
X172074Y168926D01*
X171642Y168362D01*
X171492Y168000D01*
X176508D01*
X176358Y168362D01*
X175926Y168926D01*
X175571Y169198D01*
X175550Y169242D01*
Y169758D01*
X175571Y169802D01*
X175926Y170074D01*
X176358Y170638D01*
X176508Y171000D01*
D02*
G37*
G36*
Y166000D02*
X171492D01*
X171642Y165638D01*
X172074Y165074D01*
X172429Y164802D01*
X172450Y164758D01*
Y164242D01*
X172429Y164198D01*
X172074Y163926D01*
X171642Y163362D01*
X171492Y163000D01*
X176508D01*
X176358Y163362D01*
X175926Y163926D01*
X175571Y164198D01*
X175550Y164242D01*
Y164758D01*
X175571Y164802D01*
X175926Y165074D01*
X176358Y165638D01*
X176508Y166000D01*
D02*
G37*
G36*
Y161000D02*
X175000D01*
Y159492D01*
X175362Y159642D01*
X175926Y160074D01*
X176358Y160638D01*
X176508Y161000D01*
D02*
G37*
G36*
X173000D02*
X171492D01*
X171642Y160638D01*
X172074Y160074D01*
X172638Y159642D01*
X173000Y159492D01*
Y161000D01*
D02*
G37*
G36*
X340295Y163321D02*
X339161Y163172D01*
X338103Y162734D01*
X337195Y162037D01*
X336499Y161129D01*
X336061Y160072D01*
X335911Y158937D01*
X336061Y157802D01*
X336499Y156745D01*
X337195Y155837D01*
X338103Y155140D01*
X339161Y154702D01*
X340295Y154553D01*
X341430Y154702D01*
X342487Y155140D01*
X343395Y155837D01*
X344092Y156745D01*
X344530Y157802D01*
X344679Y158937D01*
X344530Y160072D01*
X344092Y161129D01*
X343395Y162037D01*
X342487Y162734D01*
X341430Y163172D01*
X340295Y163321D01*
D02*
G37*
G36*
X320610D02*
X319476Y163172D01*
X318418Y162734D01*
X317510Y162037D01*
X316814Y161129D01*
X316376Y160072D01*
X316226Y158937D01*
X316376Y157802D01*
X316814Y156745D01*
X317510Y155837D01*
X318418Y155140D01*
X319476Y154702D01*
X320610Y154553D01*
X321745Y154702D01*
X322802Y155140D01*
X323710Y155837D01*
X324407Y156745D01*
X324845Y157802D01*
X324994Y158937D01*
X324845Y160072D01*
X324407Y161129D01*
X323710Y162037D01*
X322802Y162734D01*
X321745Y163172D01*
X320610Y163321D01*
D02*
G37*
G36*
X168323Y156512D02*
X160417D01*
Y148606D01*
X168323D01*
Y156512D01*
D02*
G37*
G36*
X174370Y156546D02*
X173338Y156410D01*
X172377Y156012D01*
X171551Y155378D01*
X170917Y154552D01*
X170519Y153591D01*
X170383Y152559D01*
X170519Y151527D01*
X170917Y150566D01*
X171551Y149740D01*
X172377Y149106D01*
X173338Y148708D01*
X174370Y148572D01*
X175402Y148708D01*
X176364Y149106D01*
X177189Y149740D01*
X177823Y150566D01*
X178221Y151527D01*
X178357Y152559D01*
X178221Y153591D01*
X177823Y154552D01*
X177189Y155378D01*
X176364Y156012D01*
X175402Y156410D01*
X174370Y156546D01*
D02*
G37*
G36*
X341295Y149611D02*
Y146158D01*
X344749D01*
X344725Y146344D01*
X344267Y147450D01*
X343538Y148400D01*
X342588Y149129D01*
X341482Y149587D01*
X341295Y149611D01*
D02*
G37*
G36*
X321610D02*
Y146158D01*
X325064D01*
X325040Y146344D01*
X324582Y147450D01*
X323853Y148400D01*
X322903Y149129D01*
X321797Y149587D01*
X321610Y149611D01*
D02*
G37*
G36*
X339295D02*
X339108Y149587D01*
X338002Y149129D01*
X337053Y148400D01*
X336324Y147450D01*
X335866Y146344D01*
X335841Y146158D01*
X339295D01*
Y149611D01*
D02*
G37*
G36*
X319610D02*
X319423Y149587D01*
X318317Y149129D01*
X317368Y148400D01*
X316639Y147450D01*
X316181Y146344D01*
X316156Y146158D01*
X319610D01*
Y149611D01*
D02*
G37*
G36*
X325064Y144158D02*
X321610D01*
Y140703D01*
X321797Y140728D01*
X322903Y141186D01*
X323853Y141915D01*
X324582Y142865D01*
X325040Y143971D01*
X325064Y144158D01*
D02*
G37*
G36*
X344749D02*
X341295D01*
Y140703D01*
X341482Y140728D01*
X342588Y141186D01*
X343538Y141915D01*
X344267Y142865D01*
X344725Y143971D01*
X344749Y144158D01*
D02*
G37*
G36*
X339295D02*
X335841D01*
X335866Y143971D01*
X336324Y142865D01*
X337053Y141915D01*
X338002Y141186D01*
X339108Y140728D01*
X339295Y140703D01*
Y144158D01*
D02*
G37*
G36*
X319610D02*
X316156D01*
X316181Y143971D01*
X316639Y142865D01*
X317368Y141915D01*
X318317Y141186D01*
X319423Y140728D01*
X319610Y140703D01*
Y144158D01*
D02*
G37*
G36*
X340295Y135762D02*
X339161Y135612D01*
X338103Y135175D01*
X337195Y134478D01*
X336499Y133570D01*
X336061Y132513D01*
X335911Y131378D01*
X336061Y130243D01*
X336499Y129186D01*
X337195Y128278D01*
X338103Y127581D01*
X339161Y127143D01*
X340295Y126994D01*
X341430Y127143D01*
X342487Y127581D01*
X343395Y128278D01*
X344092Y129186D01*
X344530Y130243D01*
X344679Y131378D01*
X344530Y132513D01*
X344092Y133570D01*
X343395Y134478D01*
X342487Y135175D01*
X341430Y135612D01*
X340295Y135762D01*
D02*
G37*
G36*
X320610D02*
X319476Y135612D01*
X318418Y135175D01*
X317510Y134478D01*
X316814Y133570D01*
X316376Y132513D01*
X316226Y131378D01*
X316376Y130243D01*
X316814Y129186D01*
X317510Y128278D01*
X318418Y127581D01*
X319476Y127143D01*
X320610Y126994D01*
X321745Y127143D01*
X322802Y127581D01*
X323710Y128278D01*
X324407Y129186D01*
X324845Y130243D01*
X324994Y131378D01*
X324845Y132513D01*
X324407Y133570D01*
X323710Y134478D01*
X322802Y135175D01*
X321745Y135612D01*
X320610Y135762D01*
D02*
G37*
G36*
X275218Y132345D02*
X273827Y132162D01*
X272530Y131625D01*
X266393Y128082D01*
X265279Y127227D01*
X264425Y126114D01*
X263888Y124817D01*
X263704Y123425D01*
X263888Y122034D01*
X264425Y120737D01*
X265279Y119623D01*
X266393Y118769D01*
X267689Y118232D01*
X269081Y118049D01*
X270473Y118232D01*
X271769Y118769D01*
X277907Y122312D01*
X279020Y123167D01*
X279875Y124280D01*
X280412Y125577D01*
X280595Y126969D01*
X280412Y128360D01*
X279875Y129657D01*
X279020Y130770D01*
X277907Y131625D01*
X276610Y132162D01*
X275218Y132345D01*
D02*
G37*
G36*
X292756Y108034D02*
X285669D01*
X284278Y107851D01*
X282981Y107314D01*
X281867Y106459D01*
X281013Y105346D01*
X280476Y104049D01*
X280293Y102657D01*
X280476Y101266D01*
X281013Y99969D01*
X281867Y98856D01*
X282981Y98001D01*
X284278Y97464D01*
X285669Y97281D01*
X292756D01*
X294147Y97464D01*
X295444Y98001D01*
X296558Y98856D01*
X297412Y99969D01*
X297949Y101266D01*
X298133Y102657D01*
X297949Y104049D01*
X297412Y105346D01*
X296558Y106459D01*
X295444Y107314D01*
X294147Y107851D01*
X292756Y108034D01*
D02*
G37*
G36*
X180551D02*
X173465D01*
X172073Y107851D01*
X170776Y107314D01*
X169663Y106459D01*
X168808Y105346D01*
X168271Y104049D01*
X168088Y102657D01*
X168271Y101266D01*
X168808Y99969D01*
X169663Y98856D01*
X170776Y98001D01*
X172073Y97464D01*
X173465Y97281D01*
X180551D01*
X181943Y97464D01*
X183239Y98001D01*
X184353Y98856D01*
X185207Y99969D01*
X185745Y101266D01*
X185928Y102657D01*
X185745Y104049D01*
X185207Y105346D01*
X184353Y106459D01*
X183239Y107314D01*
X181943Y107851D01*
X180551Y108034D01*
D02*
G37*
G36*
X197140Y87168D02*
X195748Y86985D01*
X194451Y86448D01*
X188314Y82904D01*
X187200Y82050D01*
X186346Y80936D01*
X185809Y79640D01*
X185626Y78248D01*
X185809Y76856D01*
X186346Y75560D01*
X187200Y74446D01*
X188314Y73592D01*
X189611Y73054D01*
X191002Y72871D01*
X192394Y73054D01*
X193691Y73592D01*
X199828Y77135D01*
X200941Y77989D01*
X201796Y79103D01*
X202333Y80400D01*
X202516Y81791D01*
X202333Y83183D01*
X201796Y84480D01*
X200941Y85593D01*
X199828Y86448D01*
X198531Y86985D01*
X197140Y87168D01*
D02*
G37*
G36*
X340295Y75821D02*
X339161Y75672D01*
X338103Y75234D01*
X337195Y74537D01*
X336499Y73629D01*
X336061Y72572D01*
X335911Y71437D01*
X336061Y70302D01*
X336499Y69245D01*
X337195Y68337D01*
X338103Y67640D01*
X339161Y67202D01*
X340295Y67053D01*
X341430Y67202D01*
X342487Y67640D01*
X343395Y68337D01*
X344092Y69245D01*
X344530Y70302D01*
X344679Y71437D01*
X344530Y72572D01*
X344092Y73629D01*
X343395Y74537D01*
X342487Y75234D01*
X341430Y75672D01*
X340295Y75821D01*
D02*
G37*
G36*
X320610D02*
X319476Y75672D01*
X318418Y75234D01*
X317510Y74537D01*
X316814Y73629D01*
X316376Y72572D01*
X316226Y71437D01*
X316376Y70302D01*
X316814Y69245D01*
X317510Y68337D01*
X318418Y67640D01*
X319476Y67202D01*
X320610Y67053D01*
X321745Y67202D01*
X322802Y67640D01*
X323710Y68337D01*
X324407Y69245D01*
X324845Y70302D01*
X324994Y71437D01*
X324845Y72572D01*
X324407Y73629D01*
X323710Y74537D01*
X322802Y75234D01*
X321745Y75672D01*
X320610Y75821D01*
D02*
G37*
G36*
X341295Y62112D02*
Y58657D01*
X344749D01*
X344725Y58844D01*
X344267Y59950D01*
X343538Y60900D01*
X342588Y61629D01*
X341482Y62087D01*
X341295Y62112D01*
D02*
G37*
G36*
X321610D02*
Y58657D01*
X325064D01*
X325040Y58844D01*
X324582Y59950D01*
X323853Y60900D01*
X322903Y61629D01*
X321797Y62087D01*
X321610Y62112D01*
D02*
G37*
G36*
X339295D02*
X339108Y62087D01*
X338002Y61629D01*
X337053Y60900D01*
X336324Y59950D01*
X335866Y58844D01*
X335841Y58657D01*
X339295D01*
Y62112D01*
D02*
G37*
G36*
X319610D02*
X319423Y62087D01*
X318317Y61629D01*
X317368Y60900D01*
X316639Y59950D01*
X316181Y58844D01*
X316156Y58657D01*
X319610D01*
Y62112D01*
D02*
G37*
G36*
X344749Y56657D02*
X341295D01*
Y53203D01*
X341482Y53228D01*
X342588Y53686D01*
X343538Y54415D01*
X344267Y55365D01*
X344725Y56471D01*
X344749Y56657D01*
D02*
G37*
G36*
X325064D02*
X321610D01*
Y53203D01*
X321797Y53228D01*
X322903Y53686D01*
X323853Y54415D01*
X324582Y55365D01*
X325040Y56471D01*
X325064Y56657D01*
D02*
G37*
G36*
X339295D02*
X335841D01*
X335866Y56471D01*
X336324Y55365D01*
X337053Y54415D01*
X338002Y53686D01*
X339108Y53228D01*
X339295Y53203D01*
Y56657D01*
D02*
G37*
G36*
X319610D02*
X316156D01*
X316181Y56471D01*
X316639Y55365D01*
X317368Y54415D01*
X318317Y53686D01*
X319423Y53228D01*
X319610Y53203D01*
Y56657D01*
D02*
G37*
G36*
X340295Y48262D02*
X339161Y48112D01*
X338103Y47675D01*
X337195Y46978D01*
X336499Y46070D01*
X336061Y45013D01*
X335911Y43878D01*
X336061Y42743D01*
X336499Y41686D01*
X337195Y40778D01*
X338103Y40081D01*
X339161Y39643D01*
X340295Y39494D01*
X341430Y39643D01*
X342487Y40081D01*
X343395Y40778D01*
X344092Y41686D01*
X344530Y42743D01*
X344679Y43878D01*
X344530Y45013D01*
X344092Y46070D01*
X343395Y46978D01*
X342487Y47675D01*
X341430Y48112D01*
X340295Y48262D01*
D02*
G37*
G36*
X320610D02*
X319476Y48112D01*
X318418Y47675D01*
X317510Y46978D01*
X316814Y46070D01*
X316376Y45013D01*
X316226Y43878D01*
X316376Y42743D01*
X316814Y41686D01*
X317510Y40778D01*
X318418Y40081D01*
X319476Y39643D01*
X320610Y39494D01*
X321745Y39643D01*
X322802Y40081D01*
X323710Y40778D01*
X324407Y41686D01*
X324845Y42743D01*
X324994Y43878D01*
X324845Y45013D01*
X324407Y46070D01*
X323710Y46978D01*
X322802Y47675D01*
X321745Y48112D01*
X320610Y48262D01*
D02*
G37*
G36*
X340295Y34482D02*
X339161Y34333D01*
X338103Y33895D01*
X337195Y33198D01*
X336499Y32290D01*
X336061Y31233D01*
X335911Y30098D01*
X336061Y28964D01*
X336499Y27907D01*
X337195Y26998D01*
X338103Y26302D01*
X339161Y25864D01*
X340295Y25714D01*
X341430Y25864D01*
X342487Y26302D01*
X343395Y26998D01*
X344092Y27907D01*
X344530Y28964D01*
X344679Y30098D01*
X344530Y31233D01*
X344092Y32290D01*
X343395Y33198D01*
X342487Y33895D01*
X341430Y34333D01*
X340295Y34482D01*
D02*
G37*
G36*
X320610D02*
X319476Y34333D01*
X318418Y33895D01*
X317510Y33198D01*
X316814Y32290D01*
X316376Y31233D01*
X316226Y30098D01*
X316376Y28964D01*
X316814Y27907D01*
X317510Y26998D01*
X318418Y26302D01*
X319476Y25864D01*
X320610Y25714D01*
X321745Y25864D01*
X322802Y26302D01*
X323710Y26998D01*
X324407Y27907D01*
X324845Y28964D01*
X324994Y30098D01*
X324845Y31233D01*
X324407Y32290D01*
X323710Y33198D01*
X322802Y33895D01*
X321745Y34333D01*
X320610Y34482D01*
D02*
G37*
G36*
X215000Y20508D02*
Y19000D01*
X216508D01*
X216358Y19362D01*
X215926Y19926D01*
X215362Y20358D01*
X215000Y20508D01*
D02*
G37*
G36*
X213000D02*
X212638Y20358D01*
X212074Y19926D01*
X211642Y19362D01*
X211492Y19000D01*
X213000D01*
Y20508D01*
D02*
G37*
G36*
X203976Y28860D02*
X200039D01*
X199264Y28758D01*
X198542Y28459D01*
X197922Y27983D01*
X197446Y27363D01*
X197147Y26641D01*
X197045Y25866D01*
X197147Y25091D01*
X197446Y24369D01*
X197922Y23749D01*
X198095Y23616D01*
Y23116D01*
X197922Y22983D01*
X197446Y22363D01*
X197147Y21641D01*
X197045Y20866D01*
X197147Y20091D01*
X197446Y19369D01*
X197922Y18749D01*
X197931Y18742D01*
Y18242D01*
X197780Y18126D01*
X197272Y17464D01*
X197024Y16866D01*
X202008D01*
X206992D01*
X206744Y17464D01*
X206236Y18126D01*
X206085Y18242D01*
Y18742D01*
X206094Y18749D01*
X206569Y19369D01*
X206869Y20091D01*
X206971Y20866D01*
X206869Y21641D01*
X206569Y22363D01*
X206094Y22983D01*
X205920Y23116D01*
Y23616D01*
X206094Y23749D01*
X206569Y24369D01*
X206869Y25091D01*
X206971Y25866D01*
X206869Y26641D01*
X206569Y27363D01*
X206094Y27983D01*
X205473Y28459D01*
X204751Y28758D01*
X203976Y28860D01*
D02*
G37*
G36*
X229000Y15508D02*
Y14000D01*
X230508D01*
X230358Y14362D01*
X229926Y14926D01*
X229362Y15358D01*
X229000Y15508D01*
D02*
G37*
G36*
X227000D02*
X226638Y15358D01*
X226074Y14926D01*
X225642Y14362D01*
X225492Y14000D01*
X227000D01*
Y15508D01*
D02*
G37*
G36*
X216508Y17000D02*
X211492D01*
X211642Y16638D01*
X212074Y16074D01*
X212429Y15802D01*
X212450Y15758D01*
Y15242D01*
X212429Y15198D01*
X212074Y14926D01*
X211642Y14362D01*
X211492Y14000D01*
X216508D01*
X216358Y14362D01*
X215926Y14926D01*
X215571Y15198D01*
X215550Y15242D01*
Y15758D01*
X215571Y15802D01*
X215926Y16074D01*
X216358Y16638D01*
X216508Y17000D01*
D02*
G37*
G36*
X206992Y14866D02*
X203008D01*
Y12670D01*
X203976D01*
X204803Y12779D01*
X205574Y13098D01*
X206236Y13606D01*
X206744Y14268D01*
X206992Y14866D01*
D02*
G37*
G36*
X201008D02*
X197024D01*
X197272Y14268D01*
X197780Y13606D01*
X198442Y13098D01*
X199212Y12779D01*
X200039Y12670D01*
X201008D01*
Y14866D01*
D02*
G37*
G36*
X230508Y12000D02*
X229000D01*
Y10492D01*
X229362Y10642D01*
X229926Y11074D01*
X230358Y11638D01*
X230508Y12000D01*
D02*
G37*
G36*
X227000D02*
X225492D01*
X225642Y11638D01*
X226074Y11074D01*
X226638Y10642D01*
X227000Y10492D01*
Y12000D01*
D02*
G37*
G36*
X216508D02*
X211492D01*
X211642Y11638D01*
X212074Y11074D01*
X212429Y10802D01*
X212450Y10758D01*
Y10242D01*
X212429Y10198D01*
X212074Y9926D01*
X211642Y9362D01*
X211492Y9000D01*
X216508D01*
X216358Y9362D01*
X215926Y9926D01*
X215571Y10198D01*
X215550Y10242D01*
Y10758D01*
X215571Y10802D01*
X215926Y11074D01*
X216358Y11638D01*
X216508Y12000D01*
D02*
G37*
G36*
Y7000D02*
X215000D01*
Y5492D01*
X215362Y5642D01*
X215926Y6074D01*
X216358Y6638D01*
X216508Y7000D01*
D02*
G37*
G36*
X213000D02*
X211492D01*
X211642Y6638D01*
X212074Y6074D01*
X212638Y5642D01*
X213000Y5492D01*
Y7000D01*
D02*
G37*
%LPD*%
D59*
X174370Y152559D02*
D03*
X13110Y147658D02*
D03*
Y137657D02*
D03*
Y127657D02*
D03*
Y117657D02*
D03*
Y107658D02*
D03*
Y97658D02*
D03*
Y87657D02*
D03*
D60*
X164370Y152559D02*
D03*
D61*
X272150Y125197D02*
D03*
X194071Y80020D02*
D03*
D62*
X289213Y102657D02*
D03*
X177008D02*
D03*
D63*
X320610Y71437D02*
D03*
Y57657D02*
D03*
Y43878D02*
D03*
Y30098D02*
D03*
X340295Y71437D02*
D03*
Y57657D02*
D03*
Y43878D02*
D03*
Y30098D02*
D03*
X320610Y172716D02*
D03*
Y158937D02*
D03*
Y145158D02*
D03*
Y131378D02*
D03*
X340295Y172716D02*
D03*
Y158937D02*
D03*
Y145158D02*
D03*
Y131378D02*
D03*
D64*
X202008Y15866D02*
D03*
Y25866D02*
D03*
D65*
Y20866D02*
D03*
D66*
X13110Y157658D02*
D03*
D67*
X214000Y18000D02*
D03*
Y8000D02*
D03*
X174000Y162000D02*
D03*
Y172000D02*
D03*
Y167000D02*
D03*
X19000Y175000D02*
D03*
X228000Y13000D02*
D03*
X214000D02*
D03*
D68*
X142250Y147000D02*
D03*
Y138000D02*
D03*
Y129000D02*
D03*
X135500Y7500D02*
D03*
X131000D02*
D03*
X128750Y84000D02*
D03*
Y12000D02*
D03*
X126500Y7500D02*
D03*
X124250Y84000D02*
D03*
Y12000D02*
D03*
X122000Y7500D02*
D03*
X119750Y84000D02*
D03*
X117500Y7500D02*
D03*
X115250Y84000D02*
D03*
X113000Y7500D02*
D03*
X108500Y169500D02*
D03*
Y124500D02*
D03*
Y88500D02*
D03*
X110750Y84000D02*
D03*
Y21000D02*
D03*
X108500Y16500D02*
D03*
X110750Y12000D02*
D03*
X108500Y7500D02*
D03*
X104000Y169500D02*
D03*
X106250Y165000D02*
D03*
Y129000D02*
D03*
X104000Y124500D02*
D03*
X106250Y93000D02*
D03*
X104000Y88500D02*
D03*
X106250Y84000D02*
D03*
Y21000D02*
D03*
X104000Y16500D02*
D03*
X106250Y12000D02*
D03*
X104000Y7500D02*
D03*
X98000Y193500D02*
D03*
X99500Y190500D02*
D03*
X98000Y157500D02*
D03*
X99500Y154500D02*
D03*
X98000Y151500D02*
D03*
X99500Y118500D02*
D03*
X98000Y115500D02*
D03*
Y43500D02*
D03*
X99500Y40500D02*
D03*
X95000Y193500D02*
D03*
X96500Y190500D02*
D03*
X95000Y157500D02*
D03*
X96500Y154500D02*
D03*
X95000Y151500D02*
D03*
X96500Y118500D02*
D03*
X95000Y115500D02*
D03*
Y43500D02*
D03*
X96500Y40500D02*
D03*
X57500Y58500D02*
D03*
Y130500D02*
D03*
X53000Y19500D02*
D03*
X39500Y136500D02*
D03*
X54500Y130500D02*
D03*
X53000Y169500D02*
D03*
X56000Y19500D02*
D03*
X57500Y22500D02*
D03*
X51500D02*
D03*
X45500Y130500D02*
D03*
X42500D02*
D03*
X56000Y169500D02*
D03*
X45500Y94500D02*
D03*
X44000Y169500D02*
D03*
X51500Y130500D02*
D03*
X47000Y19500D02*
D03*
X48500Y94500D02*
D03*
X51500D02*
D03*
X41000Y19500D02*
D03*
X54500Y58500D02*
D03*
X39500Y94500D02*
D03*
X50000Y169500D02*
D03*
X47000D02*
D03*
X48500Y130500D02*
D03*
X39500D02*
D03*
X53000Y133500D02*
D03*
X51500Y58500D02*
D03*
X42500Y94500D02*
D03*
X50000Y19500D02*
D03*
X54500Y94500D02*
D03*
X57500D02*
D03*
X38000Y19500D02*
D03*
X44000D02*
D03*
X56000Y133500D02*
D03*
M02*
