G04*
G04 #@! TF.GenerationSoftware,Altium Limited,Altium Designer,19.1.8 (144)*
G04*
G04 Layer_Color=128*
%FSLAX25Y25*%
%MOIN*%
G70*
G01*
G75*
%ADD69C,0.00200*%
D69*
X172598Y152559D02*
X176142D01*
X174370Y150787D02*
Y154331D01*
X162598Y152559D02*
X166142D01*
X164370Y150787D02*
Y154331D01*
X269591Y125197D02*
X274709D01*
X272150Y122638D02*
Y127756D01*
X191512Y80020D02*
X196630D01*
X194071Y77461D02*
Y82579D01*
X286653Y102657D02*
X291772D01*
X289213Y100098D02*
Y105217D01*
X174449Y102657D02*
X179567D01*
X177008Y100098D02*
Y105217D01*
X318445Y71437D02*
X322776D01*
X320610Y69272D02*
Y73602D01*
X318445Y57657D02*
X322776D01*
X320610Y55492D02*
Y59823D01*
X318445Y43878D02*
X322776D01*
X320610Y41713D02*
Y46043D01*
X318445Y30098D02*
X322776D01*
X320610Y27933D02*
Y32264D01*
X338130Y71437D02*
X342461D01*
X340295Y69272D02*
Y73602D01*
X338130Y57657D02*
X342461D01*
X340295Y55492D02*
Y59823D01*
X338130Y43878D02*
X342461D01*
X340295Y41713D02*
Y46043D01*
X338130Y30098D02*
X342461D01*
X340295Y27933D02*
Y32264D01*
X318445Y172716D02*
X322776D01*
X320610Y170551D02*
Y174882D01*
X318445Y158937D02*
X322776D01*
X320610Y156772D02*
Y161102D01*
X318445Y145158D02*
X322776D01*
X320610Y142992D02*
Y147323D01*
X318445Y131378D02*
X322776D01*
X320610Y129213D02*
Y133543D01*
X338130Y172716D02*
X342461D01*
X340295Y170551D02*
Y174882D01*
X338130Y158937D02*
X342461D01*
X340295Y156772D02*
Y161102D01*
X338130Y145158D02*
X342461D01*
X340295Y142992D02*
Y147323D01*
X338130Y131378D02*
X342461D01*
X340295Y129213D02*
Y133543D01*
X200236Y15866D02*
X203780D01*
X202008Y14095D02*
Y17638D01*
X200236Y20866D02*
X203780D01*
X202008Y19094D02*
Y22638D01*
X200236Y25866D02*
X203780D01*
X202008Y24094D02*
Y27638D01*
X11339Y157658D02*
X14882D01*
X13110Y155886D02*
Y159429D01*
X11339Y147658D02*
X14882D01*
X13110Y145886D02*
Y149429D01*
X11339Y137657D02*
X14882D01*
X13110Y135886D02*
Y139429D01*
X11339Y127657D02*
X14882D01*
X13110Y125886D02*
Y129429D01*
X11339Y117657D02*
X14882D01*
X13110Y115886D02*
Y119429D01*
X11339Y107658D02*
X14882D01*
X13110Y105886D02*
Y109429D01*
X11339Y97658D02*
X14882D01*
X13110Y95886D02*
Y99429D01*
X11339Y87657D02*
X14882D01*
X13110Y85886D02*
Y89429D01*
X213250Y18000D02*
X214750D01*
X214000Y17250D02*
Y18750D01*
X213250Y8000D02*
X214750D01*
X214000Y7250D02*
Y8750D01*
X173250Y162000D02*
X174750D01*
X174000Y161250D02*
Y162750D01*
X173250Y172000D02*
X174750D01*
X174000Y171250D02*
Y172750D01*
X173250Y167000D02*
X174750D01*
X174000Y166250D02*
Y167750D01*
X18250Y175000D02*
X19750D01*
X19000Y174250D02*
Y175750D01*
X227250Y13000D02*
X228750D01*
X228000Y12250D02*
Y13750D01*
X213250Y13000D02*
X214750D01*
X214000Y12250D02*
Y13750D01*
X141650Y147000D02*
X142850D01*
X142250Y146400D02*
Y147600D01*
X141650Y138000D02*
X142850D01*
X142250Y137400D02*
Y138600D01*
X141650Y129000D02*
X142850D01*
X142250Y128400D02*
Y129600D01*
X134900Y7500D02*
X136100D01*
X135500Y6900D02*
Y8100D01*
X130400Y7500D02*
X131600D01*
X131000Y6900D02*
Y8100D01*
X128150Y84000D02*
X129350D01*
X128750Y83400D02*
Y84600D01*
X128150Y12000D02*
X129350D01*
X128750Y11400D02*
Y12600D01*
X125900Y7500D02*
X127100D01*
X126500Y6900D02*
Y8100D01*
X123650Y84000D02*
X124850D01*
X124250Y83400D02*
Y84600D01*
X123650Y12000D02*
X124850D01*
X124250Y11400D02*
Y12600D01*
X121400Y7500D02*
X122600D01*
X122000Y6900D02*
Y8100D01*
X119150Y84000D02*
X120350D01*
X119750Y83400D02*
Y84600D01*
X116900Y7500D02*
X118100D01*
X117500Y6900D02*
Y8100D01*
X114650Y84000D02*
X115850D01*
X115250Y83400D02*
Y84600D01*
X112400Y7500D02*
X113600D01*
X113000Y6900D02*
Y8100D01*
X107900Y169500D02*
X109100D01*
X108500Y168900D02*
Y170100D01*
X107900Y124500D02*
X109100D01*
X108500Y123900D02*
Y125100D01*
X107900Y88500D02*
X109100D01*
X108500Y87900D02*
Y89100D01*
X110150Y84000D02*
X111350D01*
X110750Y83400D02*
Y84600D01*
X110150Y21000D02*
X111350D01*
X110750Y20400D02*
Y21600D01*
X107900Y16500D02*
X109100D01*
X108500Y15900D02*
Y17100D01*
X110150Y12000D02*
X111350D01*
X110750Y11400D02*
Y12600D01*
X107900Y7500D02*
X109100D01*
X108500Y6900D02*
Y8100D01*
X103400Y169500D02*
X104600D01*
X104000Y168900D02*
Y170100D01*
X105650Y165000D02*
X106850D01*
X106250Y164400D02*
Y165600D01*
X105650Y129000D02*
X106850D01*
X106250Y128400D02*
Y129600D01*
X103400Y124500D02*
X104600D01*
X104000Y123900D02*
Y125100D01*
X105650Y93000D02*
X106850D01*
X106250Y92400D02*
Y93600D01*
X103400Y88500D02*
X104600D01*
X104000Y87900D02*
Y89100D01*
X105650Y84000D02*
X106850D01*
X106250Y83400D02*
Y84600D01*
X105650Y21000D02*
X106850D01*
X106250Y20400D02*
Y21600D01*
X103400Y16500D02*
X104600D01*
X104000Y15900D02*
Y17100D01*
X105650Y12000D02*
X106850D01*
X106250Y11400D02*
Y12600D01*
X103400Y7500D02*
X104600D01*
X104000Y6900D02*
Y8100D01*
X97400Y193500D02*
X98600D01*
X98000Y192900D02*
Y194100D01*
X98900Y190500D02*
X100100D01*
X99500Y189900D02*
Y191100D01*
X97400Y157500D02*
X98600D01*
X98000Y156900D02*
Y158100D01*
X98900Y154500D02*
X100100D01*
X99500Y153900D02*
Y155100D01*
X97400Y151500D02*
X98600D01*
X98000Y150900D02*
Y152100D01*
X98900Y118500D02*
X100100D01*
X99500Y117900D02*
Y119100D01*
X97400Y115500D02*
X98600D01*
X98000Y114900D02*
Y116100D01*
X97400Y43500D02*
X98600D01*
X98000Y42900D02*
Y44100D01*
X98900Y40500D02*
X100100D01*
X99500Y39900D02*
Y41100D01*
X94400Y193500D02*
X95600D01*
X95000Y192900D02*
Y194100D01*
X95900Y190500D02*
X97100D01*
X96500Y189900D02*
Y191100D01*
X94400Y157500D02*
X95600D01*
X95000Y156900D02*
Y158100D01*
X95900Y154500D02*
X97100D01*
X96500Y153900D02*
Y155100D01*
X94400Y151500D02*
X95600D01*
X95000Y150900D02*
Y152100D01*
X95900Y118500D02*
X97100D01*
X96500Y117900D02*
Y119100D01*
X94400Y115500D02*
X95600D01*
X95000Y114900D02*
Y116100D01*
X94400Y43500D02*
X95600D01*
X95000Y42900D02*
Y44100D01*
X95900Y40500D02*
X97100D01*
X96500Y39900D02*
Y41100D01*
X56900Y58500D02*
X58100D01*
X57500Y57900D02*
Y59100D01*
X56900Y130500D02*
X58100D01*
X57500Y129900D02*
Y131100D01*
X52400Y19500D02*
X53600D01*
X53000Y18900D02*
Y20100D01*
X38900Y136500D02*
X40100D01*
X39500Y135900D02*
Y137100D01*
X53900Y130500D02*
X55100D01*
X54500Y129900D02*
Y131100D01*
X52400Y169500D02*
X53600D01*
X53000Y168900D02*
Y170100D01*
X55400Y19500D02*
X56600D01*
X56000Y18900D02*
Y20100D01*
X56900Y22500D02*
X58100D01*
X57500Y21900D02*
Y23100D01*
X50900Y22500D02*
X52100D01*
X51500Y21900D02*
Y23100D01*
X44900Y130500D02*
X46100D01*
X45500Y129900D02*
Y131100D01*
X41900Y130500D02*
X43100D01*
X42500Y129900D02*
Y131100D01*
X55400Y169500D02*
X56600D01*
X56000Y168900D02*
Y170100D01*
X44900Y94500D02*
X46100D01*
X45500Y93900D02*
Y95100D01*
X43400Y169500D02*
X44600D01*
X44000Y168900D02*
Y170100D01*
X50900Y130500D02*
X52100D01*
X51500Y129900D02*
Y131100D01*
X46400Y19500D02*
X47600D01*
X47000Y18900D02*
Y20100D01*
X47900Y94500D02*
X49100D01*
X48500Y93900D02*
Y95100D01*
X50900Y94500D02*
X52100D01*
X51500Y93900D02*
Y95100D01*
X40400Y19500D02*
X41600D01*
X41000Y18900D02*
Y20100D01*
X53900Y58500D02*
X55100D01*
X54500Y57900D02*
Y59100D01*
X38900Y94500D02*
X40100D01*
X39500Y93900D02*
Y95100D01*
X49400Y169500D02*
X50600D01*
X50000Y168900D02*
Y170100D01*
X46400Y169500D02*
X47600D01*
X47000Y168900D02*
Y170100D01*
X47900Y130500D02*
X49100D01*
X48500Y129900D02*
Y131100D01*
X38900Y130500D02*
X40100D01*
X39500Y129900D02*
Y131100D01*
X52400Y133500D02*
X53600D01*
X53000Y132900D02*
Y134100D01*
X50900Y58500D02*
X52100D01*
X51500Y57900D02*
Y59100D01*
X41900Y94500D02*
X43100D01*
X42500Y93900D02*
Y95100D01*
X49400Y19500D02*
X50600D01*
X50000Y18900D02*
Y20100D01*
X53900Y94500D02*
X55100D01*
X54500Y93900D02*
Y95100D01*
X56900Y94500D02*
X58100D01*
X57500Y93900D02*
Y95100D01*
X37400Y19500D02*
X38600D01*
X38000Y18900D02*
Y20100D01*
X43400Y19500D02*
X44600D01*
X44000Y18900D02*
Y20100D01*
X55400Y133500D02*
X56600D01*
X56000Y132900D02*
Y134100D01*
M02*
