G04*
G04 #@! TF.GenerationSoftware,Altium Limited,Altium Designer,19.1.8 (144)*
G04*
G04 Layer_Color=16711935*
%FSLAX25Y25*%
%MOIN*%
G70*
G01*
G75*
%ADD49C,0.06706*%
%ADD50R,0.06706X0.06706*%
G04:AMPARAMS|DCode=51|XSize=165.48mil|YSize=94.61mil|CornerRadius=0mil|HoleSize=0mil|Usage=FLASHONLY|Rotation=210.000|XOffset=0mil|YOffset=0mil|HoleType=Round|Shape=Round|*
%AMOVALD51*
21,1,0.07087,0.09461,0.00000,0.00000,210.0*
1,1,0.09461,0.03069,0.01772*
1,1,0.09461,-0.03069,-0.01772*
%
%ADD51OVALD51*%

%ADD52O,0.16548X0.09461*%
%ADD53C,0.07493*%
%ADD54O,0.08474X0.04537*%
%ADD55O,0.08474X0.04537*%
%ADD56R,0.06706X0.06706*%
D49*
X174370Y152559D02*
D03*
X13110Y147658D02*
D03*
Y137657D02*
D03*
Y127657D02*
D03*
Y117657D02*
D03*
Y107658D02*
D03*
Y97658D02*
D03*
Y87657D02*
D03*
D50*
X164370Y152559D02*
D03*
D51*
X272150Y125197D02*
D03*
X194071Y80020D02*
D03*
D52*
X289213Y102657D02*
D03*
X177008D02*
D03*
D53*
X320610Y71437D02*
D03*
Y57657D02*
D03*
Y43878D02*
D03*
Y30098D02*
D03*
X340295Y71437D02*
D03*
Y57657D02*
D03*
Y43878D02*
D03*
Y30098D02*
D03*
X320610Y172716D02*
D03*
Y158937D02*
D03*
Y145158D02*
D03*
Y131378D02*
D03*
X340295Y172716D02*
D03*
Y158937D02*
D03*
Y145158D02*
D03*
Y131378D02*
D03*
D54*
X202008Y15866D02*
D03*
Y25866D02*
D03*
D55*
Y20866D02*
D03*
D56*
X13110Y157658D02*
D03*
M02*
