G04*
G04 #@! TF.GenerationSoftware,Altium Limited,Altium Designer,19.1.8 (144)*
G04*
G04 Layer_Physical_Order=1*
G04 Layer_Color=255*
%FSLAX25Y25*%
%MOIN*%
G70*
G01*
G75*
%ADD19C,0.00010*%
%ADD20R,0.09055X0.09055*%
%ADD21R,0.09055X0.09646*%
%ADD22R,0.03543X0.03347*%
%ADD23R,0.05315X0.03937*%
%ADD24R,0.04724X0.03937*%
%ADD25R,0.03347X0.02953*%
%ADD26R,0.03347X0.03543*%
%ADD27R,0.03937X0.04724*%
%ADD28R,0.06299X0.12992*%
%ADD29R,0.06299X0.04724*%
%ADD30R,0.04134X0.06693*%
%ADD31R,0.06496X0.04724*%
%ADD32R,0.02953X0.03347*%
%ADD33R,0.06693X0.02362*%
%ADD34R,0.05118X0.07677*%
%ADD58C,0.03000*%
%ADD59C,0.01500*%
%ADD60C,0.05906*%
%ADD61R,0.05906X0.05906*%
G04:AMPARAMS|DCode=62|XSize=157.48mil|YSize=86.61mil|CornerRadius=0mil|HoleSize=0mil|Usage=FLASHONLY|Rotation=210.000|XOffset=0mil|YOffset=0mil|HoleType=Round|Shape=Round|*
%AMOVALD62*
21,1,0.07087,0.08661,0.00000,0.00000,210.0*
1,1,0.08661,0.03069,0.01772*
1,1,0.08661,-0.03069,-0.01772*
%
%ADD62OVALD62*%

%ADD63O,0.15748X0.08661*%
%ADD64C,0.06693*%
%ADD65O,0.07874X0.03937*%
%ADD66O,0.07874X0.03937*%
%ADD67R,0.05906X0.05906*%
%ADD68C,0.03000*%
%ADD69C,0.02400*%
G36*
X60000Y196974D02*
Y187539D01*
X57713D01*
Y185158D01*
X56713D01*
Y184158D01*
X52166D01*
Y183709D01*
X50678Y182747D01*
X50058Y183036D01*
Y184276D01*
X45610D01*
X41162D01*
Y181942D01*
X38361D01*
X38228Y183387D01*
X38228Y184248D01*
Y185260D01*
X35256D01*
X32284D01*
Y184248D01*
X32284Y183387D01*
X32484Y181969D01*
Y177484D01*
X33472D01*
Y175331D01*
X31343Y175331D01*
X30778D01*
X30125Y175984D01*
X30528Y177484D01*
X30528D01*
Y181969D01*
X30728Y183387D01*
X30728Y184248D01*
Y185260D01*
X27756D01*
Y186260D01*
D01*
Y185260D01*
X24784D01*
Y184248D01*
X24784Y183387D01*
X24984Y181969D01*
Y177484D01*
X26149D01*
Y175331D01*
X25634D01*
Y169984D01*
X30195Y169984D01*
X31113Y168805D01*
X31073Y168596D01*
X19738Y157262D01*
X19352Y156683D01*
X19216Y156000D01*
Y146286D01*
X17780Y144850D01*
X16563Y145664D01*
X16961Y146626D01*
X17097Y147658D01*
X16961Y148689D01*
X16563Y149651D01*
X15929Y150477D01*
X15104Y151110D01*
X14142Y151508D01*
X13110Y151644D01*
X12078Y151508D01*
X11117Y151110D01*
X10291Y150477D01*
X9657Y149651D01*
X9259Y148689D01*
X9123Y147658D01*
X9259Y146626D01*
X9657Y145664D01*
X10291Y144838D01*
X11117Y144205D01*
X12078Y143807D01*
X13110Y143671D01*
X14142Y143807D01*
X15104Y144205D01*
X15917Y142988D01*
X14351Y141422D01*
X14142Y141508D01*
X13110Y141644D01*
X12078Y141508D01*
X11117Y141110D01*
X10291Y140477D01*
X9657Y139651D01*
X9259Y138689D01*
X9123Y137657D01*
X9259Y136626D01*
X9657Y135664D01*
X10291Y134838D01*
X11117Y134205D01*
X12078Y133807D01*
X13110Y133671D01*
X14142Y133807D01*
X15104Y134205D01*
X15929Y134838D01*
X16563Y135664D01*
X16961Y136626D01*
X17097Y137657D01*
X16961Y138689D01*
X16875Y138899D01*
X22262Y144286D01*
X22262Y144286D01*
X22648Y144864D01*
X22784Y145547D01*
X22784Y145547D01*
Y155261D01*
X34996Y167473D01*
X35383Y168051D01*
X35519Y168734D01*
X36295Y169984D01*
X36295D01*
Y172534D01*
X36971Y173377D01*
X38471Y172975D01*
Y170000D01*
X38587Y169415D01*
X38919Y168919D01*
X40919Y166919D01*
X41415Y166587D01*
X42000Y166471D01*
X60000D01*
Y150039D01*
X57713D01*
Y147658D01*
X56713D01*
Y146658D01*
X52166D01*
Y146209D01*
X50678Y145247D01*
X50058Y145536D01*
Y146776D01*
X45610D01*
X41162D01*
Y144442D01*
X38382D01*
Y145331D01*
X32839D01*
Y144442D01*
X30882D01*
Y145331D01*
X25339D01*
Y144378D01*
X24975Y144306D01*
X24396Y143919D01*
X24396Y143919D01*
X21743Y141266D01*
X21356Y140687D01*
X21220Y140004D01*
Y133743D01*
X17825Y130349D01*
X17806Y130338D01*
X15929Y130477D01*
X15104Y131110D01*
X14142Y131509D01*
X13110Y131644D01*
X12078Y131509D01*
X11117Y131110D01*
X10291Y130477D01*
X9657Y129651D01*
X9259Y128689D01*
X9123Y127657D01*
X9259Y126626D01*
X9657Y125664D01*
X10291Y124838D01*
X11117Y124205D01*
X12078Y123807D01*
X13110Y123671D01*
X14142Y123807D01*
X15104Y124205D01*
X15929Y124838D01*
X16563Y125664D01*
X16650Y125873D01*
X17658D01*
X18340Y126009D01*
X18919Y126396D01*
X24169Y131646D01*
X24580Y131608D01*
X25669Y131143D01*
Y127327D01*
X30622D01*
X30622Y127327D01*
X31378D01*
Y127327D01*
X32122Y127327D01*
X35208D01*
X35449Y126966D01*
X35945Y126634D01*
X36531Y126518D01*
X58500Y126518D01*
X60000Y125018D01*
Y112991D01*
X57713D01*
Y110610D01*
X56713D01*
Y109610D01*
X52166D01*
Y109091D01*
X50723Y108091D01*
X50058Y108386D01*
Y109728D01*
X45610D01*
Y110728D01*
D01*
Y109728D01*
X41162D01*
Y107296D01*
X39189D01*
Y108087D01*
X33646D01*
Y107198D01*
X31315D01*
Y107988D01*
X30222D01*
X30192Y108140D01*
X29805Y108718D01*
X29805Y108718D01*
X19604Y118919D01*
X19025Y119306D01*
X18342Y119442D01*
X16650D01*
X16563Y119651D01*
X15929Y120477D01*
X15104Y121110D01*
X14142Y121509D01*
X13110Y121644D01*
X12078Y121509D01*
X11117Y121110D01*
X10291Y120477D01*
X9657Y119651D01*
X9259Y118689D01*
X9123Y117657D01*
X9259Y116626D01*
X9657Y115664D01*
X10291Y114838D01*
X11117Y114205D01*
X12078Y113806D01*
X13110Y113671D01*
X14142Y113806D01*
X15104Y114205D01*
X15929Y114838D01*
X16321Y115348D01*
X17703Y115492D01*
X18035Y115441D01*
X25772Y107705D01*
Y103386D01*
X25772Y102264D01*
X25772Y101142D01*
Y96571D01*
X25772Y96539D01*
X25772Y96539D01*
X26067Y95193D01*
X26067Y95193D01*
Y89846D01*
X30276D01*
X31398Y89846D01*
X32520Y89846D01*
X35955D01*
X36343Y89587D01*
X36928Y89471D01*
X58500Y89471D01*
X60000Y87971D01*
Y75295D01*
X58087D01*
Y72913D01*
X57087D01*
Y71913D01*
X52540D01*
Y71483D01*
X51040Y70536D01*
X50448Y70818D01*
Y72118D01*
X46000D01*
X41552D01*
Y69698D01*
X39522D01*
X39389Y71143D01*
X39389Y72004D01*
Y73016D01*
X36417D01*
Y74016D01*
X35417D01*
Y76889D01*
X33465D01*
X33446Y76889D01*
X31953Y76873D01*
X30000D01*
Y74000D01*
X29000D01*
Y73000D01*
X26028D01*
Y71988D01*
X26028Y71127D01*
X26228Y69710D01*
Y65224D01*
X27060D01*
Y63673D01*
X26669D01*
Y58327D01*
X30878D01*
X30929Y58284D01*
X30382Y56784D01*
X24739D01*
X23784Y57739D01*
Y104000D01*
X23784Y104000D01*
X23649Y104683D01*
X23262Y105262D01*
X23262Y105262D01*
X19604Y108919D01*
X19025Y109306D01*
X18342Y109442D01*
X16650D01*
X16563Y109651D01*
X15929Y110477D01*
X15104Y111110D01*
X14142Y111509D01*
X13110Y111644D01*
X12078Y111509D01*
X11117Y111110D01*
X10291Y110477D01*
X9657Y109651D01*
X9259Y108689D01*
X9123Y107658D01*
X9259Y106626D01*
X9657Y105664D01*
X10291Y104838D01*
X11117Y104205D01*
X12078Y103806D01*
X13110Y103671D01*
X14142Y103806D01*
X15104Y104205D01*
X15929Y104838D01*
X16321Y105349D01*
X17703Y105492D01*
X18035Y105441D01*
X20216Y103261D01*
Y57000D01*
X20351Y56317D01*
X20738Y55738D01*
X22738Y53738D01*
X22738Y53738D01*
X23317Y53351D01*
X24000Y53216D01*
X24000Y53216D01*
X32976D01*
X33658Y53351D01*
X34237Y53738D01*
X36116Y55617D01*
X36116Y55617D01*
X36503Y56196D01*
X36639Y56879D01*
Y58327D01*
X37331D01*
Y59425D01*
X37360Y59453D01*
X38860Y58793D01*
Y57610D01*
X38977Y57025D01*
X39308Y56529D01*
X40918Y54919D01*
X41415Y54587D01*
X42000Y54471D01*
X60000D01*
X60000Y54471D01*
Y38444D01*
X57713D01*
Y36063D01*
X56713D01*
Y35063D01*
X52166D01*
Y34614D01*
X50678Y33653D01*
X50058Y33942D01*
Y35181D01*
X45610D01*
X41162D01*
Y32847D01*
X38382D01*
Y33736D01*
X35460D01*
X14895Y54302D01*
Y84118D01*
X15104Y84205D01*
X15929Y84838D01*
X16563Y85664D01*
X16961Y86626D01*
X17097Y87657D01*
X16961Y88689D01*
X16563Y89651D01*
X15929Y90477D01*
X15104Y91110D01*
X14142Y91509D01*
X13110Y91644D01*
X12078Y91509D01*
X11117Y91110D01*
X10291Y90477D01*
X9657Y89651D01*
X9259Y88689D01*
X9123Y87657D01*
X9259Y86626D01*
X9657Y85664D01*
X10291Y84838D01*
X11117Y84205D01*
X11326Y84118D01*
Y53563D01*
X11462Y52880D01*
X11849Y52301D01*
X32839Y31311D01*
Y28390D01*
X32839Y28390D01*
Y27634D01*
X32839D01*
X32839Y26890D01*
Y23585D01*
X32415Y23500D01*
X31918Y23169D01*
X31587Y22673D01*
X31471Y22087D01*
Y21000D01*
X31587Y20415D01*
X31918Y19919D01*
X34919Y16918D01*
X35415Y16587D01*
X36000Y16471D01*
X58500Y16471D01*
X60000Y14971D01*
Y3026D01*
X3026D01*
Y196974D01*
X60000D01*
D02*
G37*
G36*
X52166Y176157D02*
X56713D01*
Y175157D01*
X57713D01*
Y172776D01*
X60000D01*
Y168000D01*
X42000D01*
X40000Y170000D01*
Y175000D01*
X40700Y175700D01*
X41162Y175509D01*
Y171477D01*
X44610D01*
Y175039D01*
X45610D01*
Y176039D01*
X50058D01*
Y177000D01*
X52166D01*
Y176157D01*
D02*
G37*
G36*
X101162Y176039D02*
X105610D01*
Y175039D01*
X106610D01*
Y171477D01*
X110058D01*
X110236Y170751D01*
Y165000D01*
X107736Y162500D01*
X91148Y162500D01*
X91148Y172776D01*
X93508D01*
Y175157D01*
X94508D01*
Y176157D01*
X99054D01*
Y176181D01*
X101162D01*
Y176039D01*
D02*
G37*
G36*
X270471Y196974D02*
X271471Y196974D01*
Y187814D01*
X268717D01*
Y182087D01*
Y176359D01*
X271471D01*
Y161529D01*
X186677Y161529D01*
Y173161D01*
X179227D01*
X178586Y173802D01*
X177759Y174355D01*
X176784Y174549D01*
X174000D01*
X173024Y174355D01*
X172198Y173802D01*
X171645Y172976D01*
X171529Y172394D01*
X170529Y172492D01*
Y177000D01*
X170413Y177585D01*
X170081Y178081D01*
X165082Y183081D01*
X164585Y183413D01*
X164000Y183529D01*
X152453Y183529D01*
X151868Y183413D01*
X151371Y183081D01*
X146354Y178064D01*
X146022Y177568D01*
X145906Y176983D01*
X145906Y156905D01*
X141188D01*
X141034Y157056D01*
X141029Y157060D01*
X141025Y157065D01*
X140780Y157224D01*
X140535Y157384D01*
X140529Y157385D01*
X140524Y157389D01*
X140293Y157431D01*
X140235Y157441D01*
X139949Y157528D01*
X139945Y158436D01*
X139945Y158469D01*
X139960Y158485D01*
X139960Y159216D01*
Y161047D01*
X136610D01*
Y158485D01*
X138880D01*
X138998Y157485D01*
X138975Y157480D01*
X138968Y157478D01*
X138949Y157474D01*
X138695Y157419D01*
X138415Y157363D01*
X138404Y157356D01*
X138391Y157353D01*
X138156Y157191D01*
X138029Y157106D01*
X136827D01*
Y153543D01*
Y149981D01*
X137471D01*
Y146020D01*
X131461D01*
Y144442D01*
X128677D01*
Y147004D01*
X122543D01*
Y138311D01*
X124603D01*
Y136433D01*
X124394D01*
Y131087D01*
X124394Y131087D01*
Y130331D01*
X124394D01*
X124394Y130087D01*
Y127286D01*
X124325Y126839D01*
X124059D01*
X123244Y127810D01*
Y130331D01*
X123244Y130331D01*
Y131087D01*
X123244D01*
X123244Y131331D01*
Y136433D01*
X117701D01*
Y134726D01*
X117453Y134555D01*
X116453Y135079D01*
Y136039D01*
X115869D01*
Y138311D01*
X117457D01*
Y140000D01*
Y147004D01*
X111323D01*
Y144442D01*
X110058D01*
Y146658D01*
X105610D01*
X101162D01*
Y144442D01*
X99120D01*
X98957Y144796D01*
X99054Y145276D01*
X99054Y145276D01*
D01*
D01*
Y146658D01*
X94508D01*
Y147658D01*
X93508D01*
Y150039D01*
X91148D01*
X91148Y160971D01*
X91148Y160971D01*
Y160971D01*
X91148D01*
D01*
X107736Y160971D01*
X108321Y161087D01*
X108818Y161419D01*
X110966Y163567D01*
X115665D01*
Y165726D01*
Y165996D01*
X116645Y166976D01*
X117107Y166785D01*
Y166453D01*
X120079D01*
X123050D01*
Y168326D01*
X123050Y168326D01*
X123050Y168326D01*
X122850Y169243D01*
Y174228D01*
X117307D01*
Y172685D01*
X116589Y171967D01*
X115665Y172350D01*
Y174228D01*
X115475D01*
Y175811D01*
X117457D01*
Y184504D01*
X111323D01*
Y181942D01*
X110058D01*
Y184276D01*
X105610D01*
X101162D01*
Y181942D01*
X99454D01*
X99054Y182776D01*
Y184158D01*
X94508D01*
Y185158D01*
X93508D01*
Y187539D01*
X91148D01*
X91148Y196974D01*
X270471Y196974D01*
D02*
G37*
G36*
X172493Y160000D02*
X173024Y159645D01*
X174000Y159451D01*
X176106D01*
X177082Y159645D01*
X177613Y160000D01*
X280000Y160000D01*
X301000Y139000D01*
X301000Y84000D01*
X257163D01*
X229082Y112081D01*
X228585Y112413D01*
X228000Y112529D01*
X210471Y112529D01*
X198300D01*
X171000Y112529D01*
Y149381D01*
X171500Y149527D01*
X172276Y148932D01*
X173286Y148513D01*
X173370Y148502D01*
Y152559D01*
Y156616D01*
X173286Y156605D01*
X172276Y156186D01*
X171500Y155591D01*
X171000Y155737D01*
Y160000D01*
X172493D01*
D02*
G37*
G36*
X52166Y138657D02*
X56713D01*
Y137657D01*
X57713D01*
Y135276D01*
X60000D01*
X60000Y128047D01*
X36531Y128047D01*
Y129000D01*
X33854D01*
Y130000D01*
X32854D01*
Y132873D01*
X32000D01*
X32000Y135756D01*
X32139Y135855D01*
X32639Y135598D01*
Y133682D01*
X34610D01*
Y136555D01*
X35610D01*
Y137555D01*
X38582D01*
Y139428D01*
X39052Y139500D01*
X41162D01*
Y138539D01*
X45610D01*
X50058D01*
Y139500D01*
X52166Y139500D01*
Y138657D01*
D02*
G37*
G36*
X140532Y155405D02*
Y154543D01*
X143701D01*
Y153543D01*
X144701D01*
Y149981D01*
X145906D01*
X145906Y124906D01*
X142693Y121693D01*
X139960D01*
Y123547D01*
X135610D01*
X131261D01*
Y121693D01*
X91148Y121693D01*
Y135276D01*
X93508D01*
Y137657D01*
X94508D01*
Y138657D01*
X99054D01*
Y139541D01*
X101162D01*
Y138421D01*
X105610D01*
X110058D01*
Y138677D01*
X110783Y138993D01*
X111323Y138561D01*
Y138311D01*
X111689D01*
X112300Y137700D01*
Y136039D01*
X111106D01*
Y131087D01*
X111106D01*
Y130331D01*
X111106D01*
X111106Y130287D01*
Y125378D01*
X116453D01*
Y127380D01*
X116701Y127564D01*
X117501Y127162D01*
Y124784D01*
X119472D01*
Y127657D01*
X121472D01*
Y124784D01*
X123394D01*
X123444Y124784D01*
X124194D01*
X124244Y124784D01*
X126165D01*
Y127657D01*
X127165D01*
Y128657D01*
X130137D01*
X130137Y130399D01*
X130779Y130911D01*
X131461Y130767D01*
Y130240D01*
X139760D01*
Y136965D01*
X139760D01*
X139000Y137765D01*
Y139295D01*
X139760D01*
Y146020D01*
X139000D01*
X139000Y155950D01*
X139962Y155966D01*
X140532Y155405D01*
D02*
G37*
G36*
X145945Y121368D02*
X146022Y120979D01*
X146354Y120483D01*
X154837Y112000D01*
X146354Y103517D01*
X146022Y103021D01*
X145906Y102435D01*
X145906Y84000D01*
X140703D01*
X139760Y85000D01*
Y90862D01*
X139760D01*
X139156Y91612D01*
X139059Y91801D01*
X138981Y92193D01*
X139346Y92877D01*
X139606Y93193D01*
X139760D01*
Y99917D01*
X131461D01*
Y95001D01*
X130613Y94371D01*
X130037Y94711D01*
X129939Y94893D01*
X129937Y94903D01*
Y99819D01*
X128261D01*
Y101165D01*
X128854D01*
Y103727D01*
X131461D01*
Y102248D01*
X139760D01*
Y108972D01*
X131461D01*
Y107296D01*
X128854D01*
Y109858D01*
X122721D01*
Y101165D01*
X124692D01*
Y99819D01*
X124394D01*
Y94717D01*
X124394Y94472D01*
Y93717D01*
X124394Y93472D01*
Y91632D01*
X123865Y90964D01*
X123394Y90786D01*
X123244Y90873D01*
Y93815D01*
X123244Y93815D01*
Y94571D01*
X123244D01*
X123244Y94815D01*
Y99917D01*
X117701D01*
Y99917D01*
X116703Y99772D01*
X116336Y99951D01*
X116154Y100138D01*
Y101165D01*
X117634D01*
Y109858D01*
X111500D01*
Y107395D01*
X110058D01*
Y109728D01*
X105610D01*
X101162D01*
Y107395D01*
X99454D01*
X99054Y108229D01*
Y109610D01*
X94508D01*
Y110610D01*
X93508D01*
Y112991D01*
X91148D01*
X91148Y120163D01*
X91148Y120164D01*
X131261Y120164D01*
X131846Y120280D01*
X132342Y120612D01*
X132674Y121108D01*
X132689Y121185D01*
X138531D01*
X138547Y121108D01*
X138878Y120612D01*
X139375Y120280D01*
X139960Y120164D01*
X142693D01*
X143278Y120280D01*
X143774Y120612D01*
X145023Y121860D01*
X145945Y121368D01*
D02*
G37*
G36*
X164000Y182000D02*
X169000Y177000D01*
Y156767D01*
X168523Y156712D01*
X168500Y156712D01*
X165370D01*
Y152559D01*
Y148406D01*
X168500D01*
X168523Y148406D01*
X169000Y148351D01*
Y112529D01*
X156471D01*
X147435Y121565D01*
X147435Y176983D01*
X152453Y182000D01*
X164000Y182000D01*
D02*
G37*
G36*
X52166Y101610D02*
X56713D01*
Y100610D01*
X57713D01*
Y98229D01*
X60000D01*
X60000Y91000D01*
X36928Y91000D01*
Y91520D01*
X34252D01*
Y92520D01*
X33252D01*
Y95393D01*
X33000D01*
X33000Y96307D01*
X33500Y96438D01*
X35417D01*
Y99311D01*
X36417D01*
Y100311D01*
X39389D01*
Y102184D01*
X39778Y102453D01*
X41162D01*
Y101492D01*
X45610D01*
X50058D01*
Y102453D01*
X52166Y102453D01*
Y101610D01*
D02*
G37*
G36*
X356974Y196974D02*
X356974Y83580D01*
X356620Y83227D01*
X303098Y83300D01*
X303097Y83300D01*
X303097Y83300D01*
X302861Y83254D01*
X302721Y83354D01*
X302467Y83685D01*
X302529Y84000D01*
X302529Y139000D01*
X302413Y139585D01*
X302081Y140081D01*
X281081Y161081D01*
X280585Y161413D01*
X280000Y161529D01*
X273000D01*
Y176559D01*
X273244D01*
Y187614D01*
X273000D01*
Y196974D01*
X356974D01*
D02*
G37*
G36*
X101162Y102494D02*
Y101492D01*
X105610D01*
X110259D01*
X110858Y101740D01*
X112373Y100225D01*
X112073Y99425D01*
X111500D01*
Y94472D01*
X111500D01*
Y93717D01*
X111500D01*
X111500Y93672D01*
Y88764D01*
X116847D01*
X117501Y88412D01*
Y88269D01*
X119472D01*
Y91142D01*
X121472D01*
Y88269D01*
X123444D01*
Y88269D01*
X124194Y88170D01*
Y88170D01*
X124203Y88170D01*
X126165D01*
Y91043D01*
X127165D01*
Y92043D01*
X130235D01*
X130707Y92508D01*
X136915Y92415D01*
X137529Y91801D01*
X137223Y91062D01*
X136610D01*
Y87500D01*
X135610D01*
Y86500D01*
X131261D01*
Y83938D01*
X132299D01*
X132658Y83287D01*
Y79029D01*
X91148Y79029D01*
X91148Y98229D01*
X93508D01*
Y100610D01*
X94508D01*
Y101610D01*
X99054D01*
Y102494D01*
X101162Y102494D01*
D02*
G37*
G36*
X52540Y64842D02*
Y63913D01*
X57087D01*
Y62913D01*
X58087D01*
Y60532D01*
X60000D01*
X60000Y56000D01*
X42000D01*
X40390Y57610D01*
X40390Y62843D01*
X41090Y63543D01*
X41552Y63352D01*
Y59320D01*
X45000D01*
Y62882D01*
X46000D01*
Y63882D01*
X50448D01*
Y64842D01*
X52540Y64842D01*
D02*
G37*
G36*
X228000Y111000D02*
X257000Y82000D01*
X301000Y82000D01*
X301000Y65000D01*
X282000Y46000D01*
X156000Y46000D01*
X147435Y54565D01*
X147435Y102435D01*
X156000Y111000D01*
X228000Y111000D01*
D02*
G37*
G36*
X356974Y81697D02*
X356974Y3026D01*
X213195Y3026D01*
Y4981D01*
X213814Y5488D01*
X214000Y5451D01*
X214976Y5645D01*
X215802Y6198D01*
X216479Y6874D01*
X226787D01*
Y10451D01*
X228000D01*
X228976Y10645D01*
X229802Y11198D01*
X230355Y12025D01*
X230549Y13000D01*
X230355Y13975D01*
X229802Y14802D01*
X228976Y15355D01*
X228000Y15549D01*
X226787D01*
Y18520D01*
X218085D01*
X216822Y19783D01*
X215995Y20335D01*
X215020Y20529D01*
X214559Y20438D01*
X214000Y20549D01*
X213603Y20470D01*
X213195Y20805D01*
X206347Y27653D01*
X206094Y27983D01*
X205763Y28237D01*
X205000Y29000D01*
X193815D01*
Y29346D01*
X186500D01*
Y29000D01*
X182853D01*
Y30398D01*
X171398D01*
Y29000D01*
X165347D01*
Y29441D01*
X157047D01*
Y29000D01*
X151000D01*
X134559Y45441D01*
X134827Y46087D01*
Y48803D01*
X131477D01*
Y46800D01*
X130777Y46000D01*
X125549Y46000D01*
X121914Y49636D01*
X122220Y50375D01*
X123444D01*
Y52248D01*
X120472D01*
Y54248D01*
X123444D01*
Y56121D01*
X123444Y56121D01*
X123444Y56121D01*
X123244Y56838D01*
Y62024D01*
X117701D01*
Y59720D01*
X117167Y59284D01*
X116453Y59592D01*
Y61630D01*
X116253D01*
Y63567D01*
X118224D01*
Y72260D01*
X112091D01*
Y69698D01*
X109763D01*
Y72031D01*
X105315D01*
X100867D01*
Y69698D01*
X99887D01*
X99413Y70498D01*
X99428Y70532D01*
X99428D01*
Y71913D01*
X94882D01*
Y72913D01*
X93882D01*
Y75295D01*
X91000D01*
Y77500D01*
X132858Y77500D01*
Y76362D01*
X138795D01*
Y77500D01*
X139444D01*
X139802Y77821D01*
X140532Y77496D01*
Y76162D01*
X142701D01*
Y79724D01*
X144701D01*
Y76162D01*
X145906D01*
X145906Y54565D01*
X146022Y53979D01*
X146354Y53483D01*
X154919Y44919D01*
X155415Y44587D01*
X156000Y44471D01*
X282000Y44471D01*
X282585Y44587D01*
X283081Y44919D01*
X302081Y63919D01*
X302413Y64415D01*
X302529Y65000D01*
X302529Y81206D01*
X303096Y81771D01*
X356974Y81697D01*
D02*
G37*
G36*
X110403Y41753D02*
Y40400D01*
X110058Y39743D01*
X106610D01*
Y36181D01*
X105610D01*
Y35181D01*
X101162D01*
Y34000D01*
X99054D01*
Y35063D01*
X94508D01*
Y36063D01*
X93508D01*
Y38444D01*
X91000D01*
Y45403D01*
X106753D01*
X110403Y41753D01*
D02*
G37*
G36*
X100867Y63795D02*
X105315D01*
X109763D01*
Y64650D01*
X110362Y64786D01*
X111000Y64236D01*
X111000Y60000D01*
X111106Y59898D01*
Y56677D01*
X111106D01*
Y55921D01*
X111106D01*
X111106Y55877D01*
Y50968D01*
X116453D01*
Y53398D01*
X117080Y54025D01*
X117701Y53514D01*
Y50575D01*
X119848D01*
X120412Y49775D01*
X120384Y49636D01*
X120501Y49050D01*
X120832Y48554D01*
X124468Y44919D01*
X124964Y44587D01*
X125549Y44471D01*
X130777Y44471D01*
X130827Y44481D01*
X130878Y44474D01*
X131119Y44539D01*
X131362Y44587D01*
X131405Y44616D01*
X131455Y44629D01*
X131652Y44780D01*
X131858Y44919D01*
X131887Y44961D01*
X131928Y44993D01*
X132259Y45371D01*
X132274Y45372D01*
X133095Y45112D01*
X133146Y44856D01*
X133478Y44359D01*
X149918Y27919D01*
X150415Y27587D01*
X151000Y27471D01*
X153035D01*
X153506Y27000D01*
X156847D01*
Y22945D01*
X161197D01*
X165547D01*
Y27000D01*
X171598D01*
Y25575D01*
X182653D01*
Y27000D01*
X186500D01*
Y23410D01*
X188373D01*
Y21866D01*
X187386D01*
X187386Y16681D01*
X187186Y15964D01*
X187186Y15802D01*
Y14090D01*
X193129D01*
Y15802D01*
X193129Y15964D01*
X192929Y16681D01*
X192929Y16764D01*
Y21866D01*
X191942D01*
Y23410D01*
X193815D01*
Y24338D01*
X197457D01*
X197913Y23721D01*
X197646Y22952D01*
X197272Y22464D01*
X197024Y21866D01*
X202008D01*
X206992D01*
X206744Y22464D01*
X206369Y22952D01*
X206169Y23531D01*
X206614Y24276D01*
X207361Y24476D01*
X212002Y19836D01*
Y19509D01*
X211645Y18975D01*
X211451Y18000D01*
X211645Y17025D01*
X212002Y16491D01*
Y14509D01*
X211645Y13975D01*
X211451Y13000D01*
X211645Y12025D01*
X212002Y11491D01*
X212002Y9509D01*
X211645Y8975D01*
X211451Y8000D01*
X211645Y7025D01*
X212002Y6491D01*
Y5894D01*
X211989Y5875D01*
X211846Y5702D01*
X211824Y5629D01*
X211782Y5566D01*
X211738Y5345D01*
X211673Y5130D01*
X211681Y5055D01*
X211666Y4981D01*
Y3026D01*
X143465D01*
X142665Y3026D01*
Y9293D01*
X142613Y9554D01*
X142572Y9817D01*
X142555Y9845D01*
X142548Y9879D01*
X142401Y10100D01*
X142329Y10218D01*
Y14764D01*
X142154Y15186D01*
X139951Y17389D01*
X139912Y17583D01*
X140350Y18383D01*
X140350D01*
Y20945D01*
X136000D01*
Y21945D01*
X135000D01*
Y25507D01*
X132308D01*
X129336Y28479D01*
X129667Y29279D01*
X131850D01*
Y27638D01*
X140150D01*
Y34362D01*
X131850D01*
Y32847D01*
X125784D01*
Y33835D01*
X120437D01*
Y33835D01*
X119681D01*
Y33835D01*
X114335D01*
Y32847D01*
X111597D01*
Y39384D01*
X111757Y39690D01*
X111777Y39757D01*
X111816Y39815D01*
X111861Y40041D01*
X111926Y40262D01*
X111919Y40332D01*
X111933Y40400D01*
Y41753D01*
X111816Y42338D01*
X111485Y42834D01*
X107834Y46485D01*
X107338Y46816D01*
X106753Y46933D01*
X91000D01*
X91000Y47732D01*
X91000Y60532D01*
X93882D01*
Y62913D01*
X94882D01*
Y63913D01*
X99428D01*
Y64961D01*
X100867D01*
Y63795D01*
D02*
G37*
G36*
X52166Y27063D02*
X56713D01*
Y26063D01*
X57713D01*
Y23682D01*
X60000D01*
X60000Y18000D01*
X36000Y18000D01*
X33000Y21000D01*
Y22087D01*
X34610D01*
Y24961D01*
X35610D01*
Y25961D01*
X38582D01*
Y27834D01*
X39052Y27905D01*
X41162D01*
Y26945D01*
X45610D01*
X50058D01*
Y27905D01*
X52166Y27905D01*
Y27063D01*
D02*
G37*
G36*
X131850Y23802D02*
Y18583D01*
X137069D01*
X138461Y17191D01*
X138155Y16452D01*
X137000D01*
Y12890D01*
Y9328D01*
X140350D01*
Y9328D01*
X141135Y9293D01*
Y3026D01*
X91148D01*
Y23682D01*
X93508D01*
Y26063D01*
X94508D01*
Y27063D01*
X99054D01*
Y27946D01*
X101162D01*
Y26945D01*
X105610D01*
X110058D01*
Y27946D01*
X121326D01*
Y25857D01*
X121269Y25800D01*
X119898D01*
Y26984D01*
X113173D01*
Y21047D01*
X119898D01*
Y22231D01*
X121767D01*
X122425Y21604D01*
X122425Y20618D01*
X122225Y19901D01*
X122225Y19739D01*
Y18028D01*
X125197D01*
X128168D01*
Y19739D01*
X128168Y19901D01*
X127969Y20618D01*
X127969Y20701D01*
Y25803D01*
X124949D01*
X124894Y25857D01*
Y27946D01*
X127706D01*
X131850Y23802D01*
D02*
G37*
%LPC*%
G36*
X30728Y189133D02*
X28756D01*
Y187260D01*
X30728D01*
Y189133D01*
D02*
G37*
G36*
X38228D02*
X36256D01*
Y187260D01*
X38228D01*
Y189133D01*
D02*
G37*
G36*
X26756D02*
X24784D01*
Y187260D01*
X26756D01*
Y189133D01*
D02*
G37*
G36*
X34256D02*
X32284D01*
Y187260D01*
X34256D01*
Y189133D01*
D02*
G37*
G36*
X50058Y188838D02*
X46610D01*
Y186276D01*
X50058D01*
Y188838D01*
D02*
G37*
G36*
X44610D02*
X41162D01*
Y186276D01*
X44610D01*
Y188838D01*
D02*
G37*
G36*
X55713Y187539D02*
X52166D01*
Y186158D01*
X55713D01*
Y187539D01*
D02*
G37*
G36*
X16869Y190019D02*
X14110D01*
Y185980D01*
X16869D01*
Y190019D01*
D02*
G37*
G36*
X12110D02*
X9351D01*
Y185980D01*
X12110D01*
Y190019D01*
D02*
G37*
G36*
X16869Y183980D02*
X9351D01*
Y179942D01*
X9551D01*
Y170496D01*
X16669D01*
Y172451D01*
X19000D01*
X19975Y172645D01*
X20802Y173198D01*
X21355Y174024D01*
X21549Y175000D01*
X21355Y175976D01*
X20802Y176802D01*
X19975Y177355D01*
X19000Y177549D01*
X16669D01*
Y179942D01*
X16869D01*
Y183980D01*
D02*
G37*
G36*
X17263Y161810D02*
X14110D01*
Y158658D01*
X17263D01*
Y161810D01*
D02*
G37*
G36*
X12110D02*
X8958D01*
Y158658D01*
X12110D01*
Y161810D01*
D02*
G37*
G36*
X17263Y156658D02*
X14110D01*
Y153505D01*
X17263D01*
Y156658D01*
D02*
G37*
G36*
X12110D02*
X8958D01*
Y153505D01*
X12110D01*
Y156658D01*
D02*
G37*
G36*
X50058Y151338D02*
X46610D01*
Y148776D01*
X50058D01*
Y151338D01*
D02*
G37*
G36*
X44610D02*
X41162D01*
Y148776D01*
X44610D01*
Y151338D01*
D02*
G37*
G36*
X55713Y150039D02*
X52166D01*
Y148658D01*
X55713D01*
Y150039D01*
D02*
G37*
G36*
X50058Y114290D02*
X46610D01*
Y111728D01*
X50058D01*
Y114290D01*
D02*
G37*
G36*
X44610D02*
X41162D01*
Y111728D01*
X44610D01*
Y114290D01*
D02*
G37*
G36*
X55713Y112991D02*
X52166D01*
Y111610D01*
X55713D01*
Y112991D01*
D02*
G37*
G36*
X13110Y101644D02*
X12078Y101508D01*
X11117Y101110D01*
X10291Y100477D01*
X9657Y99651D01*
X9259Y98689D01*
X9123Y97658D01*
X9259Y96626D01*
X9657Y95664D01*
X10291Y94838D01*
X11117Y94205D01*
X12078Y93806D01*
X13110Y93671D01*
X14142Y93806D01*
X15104Y94205D01*
X15929Y94838D01*
X16563Y95664D01*
X16961Y96626D01*
X17097Y97658D01*
X16961Y98689D01*
X16563Y99651D01*
X15929Y100477D01*
X15104Y101110D01*
X14142Y101508D01*
X13110Y101644D01*
D02*
G37*
G36*
X37417Y76889D02*
Y75016D01*
X39389D01*
Y76889D01*
X37417D01*
D02*
G37*
G36*
X28000Y76873D02*
X26028D01*
Y75000D01*
X28000D01*
Y76873D01*
D02*
G37*
G36*
X50448Y76680D02*
X47000D01*
Y74118D01*
X50448D01*
Y76680D01*
D02*
G37*
G36*
X45000D02*
X41552D01*
Y74118D01*
X45000D01*
Y76680D01*
D02*
G37*
G36*
X56087Y75295D02*
X52540D01*
Y73913D01*
X56087D01*
Y75295D01*
D02*
G37*
G36*
X50058Y39743D02*
X46610D01*
Y37181D01*
X50058D01*
Y39743D01*
D02*
G37*
G36*
X44610D02*
X41162D01*
Y37181D01*
X44610D01*
Y39743D01*
D02*
G37*
G36*
X55713Y38444D02*
X52166D01*
Y37063D01*
X55713D01*
Y38444D01*
D02*
G37*
G36*
X55713Y174158D02*
X52166D01*
Y172776D01*
X55713D01*
Y174158D01*
D02*
G37*
G36*
X50058Y174039D02*
X46610D01*
Y171477D01*
X50058D01*
Y174039D01*
D02*
G37*
G36*
X99054Y174158D02*
X95508D01*
Y172776D01*
X99054D01*
Y174158D01*
D02*
G37*
G36*
X104610Y174039D02*
X101162D01*
Y171477D01*
X104610D01*
Y174039D01*
D02*
G37*
G36*
X186877Y192062D02*
X182150D01*
Y187039D01*
X186877D01*
Y192062D01*
D02*
G37*
G36*
X180150D02*
X175422D01*
Y187039D01*
X180150D01*
Y192062D01*
D02*
G37*
G36*
X110058Y188838D02*
X106610D01*
Y186276D01*
X110058D01*
Y188838D01*
D02*
G37*
G36*
X104610D02*
X101162D01*
Y186276D01*
X104610D01*
Y188838D01*
D02*
G37*
G36*
X99054Y187539D02*
X95508D01*
Y186158D01*
X99054D01*
Y187539D01*
D02*
G37*
G36*
X266717Y187814D02*
X261989D01*
Y183087D01*
X266717D01*
Y187814D01*
D02*
G37*
G36*
X186877Y185039D02*
X182150D01*
Y180017D01*
X186877D01*
Y185039D01*
D02*
G37*
G36*
X180150D02*
X175422D01*
Y180017D01*
X180150D01*
Y185039D01*
D02*
G37*
G36*
X128677Y184504D02*
X122543D01*
Y175811D01*
X124603D01*
Y174228D01*
X124394D01*
Y169243D01*
X124194Y168326D01*
X124194Y167965D01*
Y166453D01*
X130137D01*
Y167169D01*
D01*
Y167965D01*
X130137Y168326D01*
X129937Y169243D01*
Y174228D01*
X128172D01*
Y175811D01*
X128677D01*
Y178373D01*
X131461D01*
Y176795D01*
X139760D01*
Y183520D01*
X131461D01*
Y181942D01*
X128677D01*
Y184504D01*
D02*
G37*
G36*
X266717Y181087D02*
X261989D01*
Y176359D01*
X266717D01*
Y181087D01*
D02*
G37*
G36*
X139760Y174465D02*
X131461D01*
Y167740D01*
X139760D01*
Y174465D01*
D02*
G37*
G36*
X139960Y165609D02*
X136610D01*
Y163047D01*
X139960D01*
Y165609D01*
D02*
G37*
G36*
X134610D02*
X131261D01*
Y163047D01*
X134610D01*
Y165609D01*
D02*
G37*
G36*
X130137Y164453D02*
X128165D01*
Y162580D01*
X130137D01*
Y164453D01*
D02*
G37*
G36*
X126165D02*
X124194D01*
Y162580D01*
X126165D01*
Y164453D01*
D02*
G37*
G36*
X123050D02*
X121079D01*
Y162580D01*
X123050D01*
Y164453D01*
D02*
G37*
G36*
X119079D02*
X117107D01*
Y162580D01*
X119079D01*
Y164453D01*
D02*
G37*
G36*
X134610Y161047D02*
X131261D01*
Y158485D01*
X134610D01*
Y161047D01*
D02*
G37*
G36*
X134827Y157106D02*
X132658D01*
Y154543D01*
X134827D01*
Y157106D01*
D02*
G37*
G36*
Y152543D02*
X132658D01*
Y149981D01*
X134827D01*
Y152543D01*
D02*
G37*
G36*
X110058Y151220D02*
X106610D01*
Y148658D01*
X110058D01*
Y151220D01*
D02*
G37*
G36*
X99054Y150039D02*
X95508D01*
Y148658D01*
X99054D01*
Y150039D01*
D02*
G37*
G36*
X104610Y151220D02*
X101162D01*
Y148658D01*
X104610D01*
Y151220D01*
D02*
G37*
G36*
X175370Y156616D02*
Y153559D01*
X178427D01*
X178416Y153643D01*
X177998Y154653D01*
X177332Y155521D01*
X176464Y156186D01*
X175454Y156605D01*
X175370Y156616D01*
D02*
G37*
G36*
X178427Y151559D02*
X175370D01*
Y148502D01*
X175454Y148513D01*
X176464Y148932D01*
X177332Y149597D01*
X177998Y150465D01*
X178416Y151475D01*
X178427Y151559D01*
D02*
G37*
G36*
X275218Y132547D02*
X273774Y132357D01*
X272429Y131800D01*
X270226Y130528D01*
X272516Y126563D01*
X279435Y130558D01*
X279163Y130913D01*
X278007Y131800D01*
X276662Y132357D01*
X275218Y132547D01*
D02*
G37*
G36*
X268494Y129528D02*
X266292Y128256D01*
X265137Y127370D01*
X264250Y126214D01*
X263693Y124869D01*
X263503Y123425D01*
X263693Y121981D01*
X263864Y121568D01*
X270784Y125563D01*
X268494Y129528D01*
D02*
G37*
G36*
X280435Y128826D02*
X273516Y124831D01*
X275805Y120866D01*
X278007Y122137D01*
X279163Y123024D01*
X280049Y124179D01*
X280607Y125525D01*
X280797Y126969D01*
X280607Y128412D01*
X280435Y128826D01*
D02*
G37*
G36*
X271784Y123831D02*
X264864Y119836D01*
X265137Y119481D01*
X266292Y118594D01*
X267637Y118037D01*
X269081Y117847D01*
X270525Y118037D01*
X271870Y118594D01*
X274073Y119866D01*
X271784Y123831D01*
D02*
G37*
G36*
X292756Y108236D02*
X290213D01*
Y103657D01*
X298203D01*
X298144Y104101D01*
X297587Y105447D01*
X296701Y106602D01*
X295545Y107489D01*
X294200Y108046D01*
X292756Y108236D01*
D02*
G37*
G36*
X288213D02*
X285669D01*
X284226Y108046D01*
X282880Y107489D01*
X281725Y106602D01*
X280838Y105447D01*
X280281Y104101D01*
X280223Y103657D01*
X288213D01*
Y108236D01*
D02*
G37*
G36*
X298203Y101657D02*
X290213D01*
Y97079D01*
X292756D01*
X294200Y97269D01*
X295545Y97826D01*
X296701Y98713D01*
X297587Y99868D01*
X298144Y101214D01*
X298203Y101657D01*
D02*
G37*
G36*
X288213D02*
X280223D01*
X280281Y101214D01*
X280838Y99868D01*
X281725Y98713D01*
X282880Y97826D01*
X284226Y97269D01*
X285669Y97079D01*
X288213D01*
Y101657D01*
D02*
G37*
G36*
X55713Y136658D02*
X52166D01*
Y135276D01*
X55713D01*
Y136658D01*
D02*
G37*
G36*
X50058Y136539D02*
X46610D01*
Y133977D01*
X50058D01*
Y136539D01*
D02*
G37*
G36*
X44610D02*
X41162D01*
Y133977D01*
X44610D01*
Y136539D01*
D02*
G37*
G36*
X38582Y135555D02*
X36610D01*
Y133682D01*
X38582D01*
Y135555D01*
D02*
G37*
G36*
X36531Y132873D02*
X34854D01*
Y131000D01*
X36531D01*
Y132873D01*
D02*
G37*
G36*
X142701Y152543D02*
X140532D01*
Y149981D01*
X142701D01*
Y152543D01*
D02*
G37*
G36*
X99054Y136658D02*
X95508D01*
Y135276D01*
X99054D01*
Y136658D01*
D02*
G37*
G36*
X110058Y136421D02*
X106610D01*
Y133859D01*
X110058D01*
Y136421D01*
D02*
G37*
G36*
X104610D02*
X101162D01*
Y133859D01*
X104610D01*
Y136421D01*
D02*
G37*
G36*
X139960Y128109D02*
X136610D01*
Y125547D01*
X139960D01*
Y128109D01*
D02*
G37*
G36*
X134610D02*
X131261D01*
Y125547D01*
X134610D01*
Y128109D01*
D02*
G37*
G36*
X130137Y126657D02*
X128165D01*
Y124784D01*
X130137D01*
Y126657D01*
D02*
G37*
G36*
X110058Y114290D02*
X106610D01*
Y111728D01*
X110058D01*
Y114290D01*
D02*
G37*
G36*
X104610D02*
X101162D01*
Y111728D01*
X104610D01*
Y114290D01*
D02*
G37*
G36*
X99054Y112991D02*
X95508D01*
Y111610D01*
X99054D01*
Y112991D01*
D02*
G37*
G36*
X165157Y178798D02*
X161807D01*
Y172102D01*
X165157D01*
Y178798D01*
D02*
G37*
G36*
X159807D02*
X156457D01*
Y172102D01*
X159807D01*
Y178798D01*
D02*
G37*
G36*
X165157Y170102D02*
X161807D01*
Y163406D01*
X165157D01*
Y170102D01*
D02*
G37*
G36*
X159807D02*
X156457D01*
Y163406D01*
X159807D01*
Y170102D01*
D02*
G37*
G36*
X163370Y156712D02*
X160217D01*
Y153559D01*
X163370D01*
Y156712D01*
D02*
G37*
G36*
Y151559D02*
X160217D01*
Y148406D01*
X163370D01*
Y151559D01*
D02*
G37*
G36*
X165157Y141298D02*
X161807D01*
Y134602D01*
X165157D01*
Y141298D01*
D02*
G37*
G36*
X159807D02*
X156457D01*
Y134602D01*
X159807D01*
Y141298D01*
D02*
G37*
G36*
X165157Y132602D02*
X161807D01*
Y125906D01*
X165157D01*
Y132602D01*
D02*
G37*
G36*
X159807D02*
X156457D01*
Y125906D01*
X159807D01*
Y132602D01*
D02*
G37*
G36*
X55713Y99610D02*
X52166D01*
Y98229D01*
X55713D01*
Y99610D01*
D02*
G37*
G36*
X50058Y99492D02*
X46610D01*
Y96930D01*
X50058D01*
Y99492D01*
D02*
G37*
G36*
X44610D02*
X41162D01*
Y96930D01*
X44610D01*
Y99492D01*
D02*
G37*
G36*
X39389Y98311D02*
X37417D01*
Y96438D01*
X39389D01*
Y98311D01*
D02*
G37*
G36*
X36928Y95393D02*
X35252D01*
Y93520D01*
X36928D01*
Y95393D01*
D02*
G37*
G36*
X291161Y187814D02*
X286433D01*
Y183087D01*
X291161D01*
Y187814D01*
D02*
G37*
G36*
X284433D02*
X279706D01*
Y183087D01*
X284433D01*
Y187814D01*
D02*
G37*
G36*
X291161Y181087D02*
X286433D01*
Y176359D01*
X291161D01*
Y181087D01*
D02*
G37*
G36*
X284433D02*
X279706D01*
Y176359D01*
X284433D01*
Y181087D01*
D02*
G37*
G36*
X340295Y177101D02*
X339161Y176951D01*
X338103Y176513D01*
X337195Y175817D01*
X336499Y174908D01*
X336061Y173851D01*
X335911Y172716D01*
X336061Y171582D01*
X336499Y170525D01*
X337195Y169617D01*
X338103Y168920D01*
X339161Y168482D01*
X340295Y168333D01*
X341430Y168482D01*
X342487Y168920D01*
X343395Y169617D01*
X344092Y170525D01*
X344530Y171582D01*
X344679Y172716D01*
X344530Y173851D01*
X344092Y174908D01*
X343395Y175817D01*
X342487Y176513D01*
X341430Y176951D01*
X340295Y177101D01*
D02*
G37*
G36*
X320610D02*
X319476Y176951D01*
X318418Y176513D01*
X317510Y175817D01*
X316814Y174908D01*
X316376Y173851D01*
X316226Y172716D01*
X316376Y171582D01*
X316814Y170525D01*
X317510Y169617D01*
X318418Y168920D01*
X319476Y168482D01*
X320610Y168333D01*
X321745Y168482D01*
X322802Y168920D01*
X323710Y169617D01*
X324407Y170525D01*
X324845Y171582D01*
X324994Y172716D01*
X324845Y173851D01*
X324407Y174908D01*
X323710Y175817D01*
X322802Y176513D01*
X321745Y176951D01*
X320610Y177101D01*
D02*
G37*
G36*
X341295Y163391D02*
Y159937D01*
X344749D01*
X344725Y160124D01*
X344267Y161230D01*
X343538Y162180D01*
X342588Y162908D01*
X341482Y163366D01*
X341295Y163391D01*
D02*
G37*
G36*
X321610D02*
Y159937D01*
X325064D01*
X325040Y160124D01*
X324582Y161230D01*
X323853Y162180D01*
X322903Y162908D01*
X321797Y163366D01*
X321610Y163391D01*
D02*
G37*
G36*
X339295D02*
X339108Y163366D01*
X338002Y162908D01*
X337053Y162180D01*
X336324Y161230D01*
X335866Y160124D01*
X335841Y159937D01*
X339295D01*
Y163391D01*
D02*
G37*
G36*
X319610D02*
X319423Y163366D01*
X318317Y162908D01*
X317368Y162180D01*
X316639Y161230D01*
X316181Y160124D01*
X316156Y159937D01*
X319610D01*
Y163391D01*
D02*
G37*
G36*
X344749Y157937D02*
X341295D01*
Y154483D01*
X341482Y154508D01*
X342588Y154966D01*
X343538Y155694D01*
X344267Y156644D01*
X344725Y157750D01*
X344749Y157937D01*
D02*
G37*
G36*
X325064D02*
X321610D01*
Y154483D01*
X321797Y154508D01*
X322903Y154966D01*
X323853Y155694D01*
X324582Y156644D01*
X325040Y157750D01*
X325064Y157937D01*
D02*
G37*
G36*
X339295D02*
X335841D01*
X335866Y157750D01*
X336324Y156644D01*
X337053Y155694D01*
X338002Y154966D01*
X339108Y154508D01*
X339295Y154483D01*
Y157937D01*
D02*
G37*
G36*
X319610D02*
X316156D01*
X316181Y157750D01*
X316639Y156644D01*
X317368Y155694D01*
X318317Y154966D01*
X319423Y154508D01*
X319610Y154483D01*
Y157937D01*
D02*
G37*
G36*
X340295Y149541D02*
X339161Y149392D01*
X338103Y148954D01*
X337195Y148257D01*
X336499Y147350D01*
X336061Y146292D01*
X335911Y145158D01*
X336061Y144023D01*
X336499Y142965D01*
X337195Y142058D01*
X338103Y141361D01*
X339161Y140923D01*
X340295Y140773D01*
X341430Y140923D01*
X342487Y141361D01*
X343395Y142058D01*
X344092Y142965D01*
X344530Y144023D01*
X344679Y145158D01*
X344530Y146292D01*
X344092Y147350D01*
X343395Y148257D01*
X342487Y148954D01*
X341430Y149392D01*
X340295Y149541D01*
D02*
G37*
G36*
X320610D02*
X319476Y149392D01*
X318418Y148954D01*
X317510Y148257D01*
X316814Y147350D01*
X316376Y146292D01*
X316226Y145158D01*
X316376Y144023D01*
X316814Y142965D01*
X317510Y142058D01*
X318418Y141361D01*
X319476Y140923D01*
X320610Y140773D01*
X321745Y140923D01*
X322802Y141361D01*
X323710Y142058D01*
X324407Y142965D01*
X324845Y144023D01*
X324994Y145158D01*
X324845Y146292D01*
X324407Y147350D01*
X323710Y148257D01*
X322802Y148954D01*
X321745Y149392D01*
X320610Y149541D01*
D02*
G37*
G36*
X340295Y135762D02*
X339161Y135612D01*
X338103Y135175D01*
X337195Y134478D01*
X336499Y133570D01*
X336061Y132513D01*
X335911Y131378D01*
X336061Y130243D01*
X336499Y129186D01*
X337195Y128278D01*
X338103Y127581D01*
X339161Y127143D01*
X340295Y126994D01*
X341430Y127143D01*
X342487Y127581D01*
X343395Y128278D01*
X344092Y129186D01*
X344530Y130243D01*
X344679Y131378D01*
X344530Y132513D01*
X344092Y133570D01*
X343395Y134478D01*
X342487Y135175D01*
X341430Y135612D01*
X340295Y135762D01*
D02*
G37*
G36*
X320610D02*
X319476Y135612D01*
X318418Y135175D01*
X317510Y134478D01*
X316814Y133570D01*
X316376Y132513D01*
X316226Y131378D01*
X316376Y130243D01*
X316814Y129186D01*
X317510Y128278D01*
X318418Y127581D01*
X319476Y127143D01*
X320610Y126994D01*
X321745Y127143D01*
X322802Y127581D01*
X323710Y128278D01*
X324407Y129186D01*
X324845Y130243D01*
X324994Y131378D01*
X324845Y132513D01*
X324407Y133570D01*
X323710Y134478D01*
X322802Y135175D01*
X321745Y135612D01*
X320610Y135762D01*
D02*
G37*
G36*
X99054Y99610D02*
X95508D01*
Y98229D01*
X99054D01*
Y99610D01*
D02*
G37*
G36*
X110058Y99492D02*
X106610D01*
Y96930D01*
X110058D01*
Y99492D01*
D02*
G37*
G36*
X104610D02*
X101162D01*
Y96930D01*
X104610D01*
Y99492D01*
D02*
G37*
G36*
X134610Y91062D02*
X131261D01*
Y88500D01*
X134610D01*
Y91062D01*
D02*
G37*
G36*
X130137Y90043D02*
X128165D01*
Y88170D01*
X130137D01*
Y90043D01*
D02*
G37*
G36*
X56087Y61913D02*
X52540D01*
Y60532D01*
X56087D01*
Y61913D01*
D02*
G37*
G36*
X50448Y61882D02*
X47000D01*
Y59320D01*
X50448D01*
Y61882D01*
D02*
G37*
G36*
X180551Y108236D02*
X178008D01*
Y103657D01*
X185998D01*
X185940Y104101D01*
X185382Y105447D01*
X184496Y106602D01*
X183340Y107489D01*
X181995Y108046D01*
X180551Y108236D01*
D02*
G37*
G36*
X176008D02*
X173465D01*
X172021Y108046D01*
X170675Y107489D01*
X169520Y106602D01*
X168633Y105447D01*
X168076Y104101D01*
X168018Y103657D01*
X176008D01*
Y108236D01*
D02*
G37*
G36*
X165157Y104251D02*
X161807D01*
Y97555D01*
X165157D01*
Y104251D01*
D02*
G37*
G36*
X159807D02*
X156457D01*
Y97555D01*
X159807D01*
Y104251D01*
D02*
G37*
G36*
X185998Y101657D02*
X178008D01*
Y97079D01*
X180551D01*
X181995Y97269D01*
X183340Y97826D01*
X184496Y98713D01*
X185382Y99868D01*
X185940Y101214D01*
X185998Y101657D01*
D02*
G37*
G36*
X176008D02*
X168018D01*
X168076Y101214D01*
X168633Y99868D01*
X169520Y98713D01*
X170675Y97826D01*
X172021Y97269D01*
X173465Y97079D01*
X176008D01*
Y101657D01*
D02*
G37*
G36*
X165157Y95555D02*
X161807D01*
Y88859D01*
X165157D01*
Y95555D01*
D02*
G37*
G36*
X159807D02*
X156457D01*
Y88859D01*
X159807D01*
Y95555D01*
D02*
G37*
G36*
X197140Y87370D02*
X195696Y87180D01*
X194350Y86622D01*
X192148Y85351D01*
X194437Y81386D01*
X201357Y85381D01*
X201084Y85736D01*
X199929Y86622D01*
X198583Y87180D01*
X197140Y87370D01*
D02*
G37*
G36*
X190416Y84351D02*
X188213Y83079D01*
X187058Y82193D01*
X186171Y81037D01*
X185614Y79692D01*
X185424Y78248D01*
X185614Y76804D01*
X185785Y76391D01*
X192705Y80386D01*
X190416Y84351D01*
D02*
G37*
G36*
X202357Y83649D02*
X195437Y79654D01*
X197726Y75689D01*
X199929Y76960D01*
X201084Y77847D01*
X201971Y79002D01*
X202528Y80348D01*
X202718Y81791D01*
X202528Y83235D01*
X202357Y83649D01*
D02*
G37*
G36*
X193705Y78654D02*
X186785Y74659D01*
X187058Y74304D01*
X188213Y73417D01*
X189558Y72860D01*
X191002Y72670D01*
X192446Y72860D01*
X193791Y73417D01*
X195994Y74689D01*
X193705Y78654D01*
D02*
G37*
G36*
X165373Y66554D02*
X162024D01*
Y59858D01*
X165373D01*
Y66554D01*
D02*
G37*
G36*
X160024D02*
X156674D01*
Y59858D01*
X160024D01*
Y66554D01*
D02*
G37*
G36*
X165373Y57858D02*
X162024D01*
Y51162D01*
X165373D01*
Y57858D01*
D02*
G37*
G36*
X160024D02*
X156674D01*
Y51162D01*
X160024D01*
Y57858D01*
D02*
G37*
G36*
X109763Y76594D02*
X106315D01*
Y74032D01*
X109763D01*
Y76594D01*
D02*
G37*
G36*
X104315D02*
X100867D01*
Y74032D01*
X104315D01*
Y76594D01*
D02*
G37*
G36*
X99428Y75295D02*
X95882D01*
Y73913D01*
X99428D01*
Y75295D01*
D02*
G37*
G36*
X340295Y75821D02*
X339161Y75672D01*
X338103Y75234D01*
X337195Y74537D01*
X336499Y73629D01*
X336061Y72572D01*
X335911Y71437D01*
X336061Y70302D01*
X336499Y69245D01*
X337195Y68337D01*
X338103Y67640D01*
X339161Y67202D01*
X340295Y67053D01*
X341430Y67202D01*
X342487Y67640D01*
X343395Y68337D01*
X344092Y69245D01*
X344530Y70302D01*
X344679Y71437D01*
X344530Y72572D01*
X344092Y73629D01*
X343395Y74537D01*
X342487Y75234D01*
X341430Y75672D01*
X340295Y75821D01*
D02*
G37*
G36*
X320610D02*
X319476Y75672D01*
X318418Y75234D01*
X317510Y74537D01*
X316814Y73629D01*
X316376Y72572D01*
X316226Y71437D01*
X316376Y70302D01*
X316814Y69245D01*
X317510Y68337D01*
X318418Y67640D01*
X319476Y67202D01*
X320610Y67053D01*
X321745Y67202D01*
X322802Y67640D01*
X323710Y68337D01*
X324407Y69245D01*
X324845Y70302D01*
X324994Y71437D01*
X324845Y72572D01*
X324407Y73629D01*
X323710Y74537D01*
X322802Y75234D01*
X321745Y75672D01*
X320610Y75821D01*
D02*
G37*
G36*
X129445Y72260D02*
X123311D01*
Y63567D01*
X125184D01*
Y62024D01*
X124787D01*
X124787Y56838D01*
X124587Y56121D01*
X124587Y55960D01*
Y54248D01*
X130531D01*
Y55960D01*
X130531Y56121D01*
X130331Y56838D01*
X130331Y56921D01*
Y62024D01*
X128753D01*
Y63567D01*
X129445D01*
Y66129D01*
X131677D01*
Y64551D01*
X139976D01*
Y71276D01*
X131677D01*
Y69698D01*
X129445D01*
Y72260D01*
D02*
G37*
G36*
X139976Y62221D02*
X131677D01*
Y55496D01*
X139976D01*
Y62221D01*
D02*
G37*
G36*
X340295Y62041D02*
X339161Y61892D01*
X338103Y61454D01*
X337195Y60757D01*
X336499Y59850D01*
X336061Y58792D01*
X335911Y57657D01*
X336061Y56523D01*
X336499Y55466D01*
X337195Y54558D01*
X338103Y53861D01*
X339161Y53423D01*
X340295Y53273D01*
X341430Y53423D01*
X342487Y53861D01*
X343395Y54558D01*
X344092Y55466D01*
X344530Y56523D01*
X344679Y57657D01*
X344530Y58792D01*
X344092Y59850D01*
X343395Y60757D01*
X342487Y61454D01*
X341430Y61892D01*
X340295Y62041D01*
D02*
G37*
G36*
X320610D02*
X319476Y61892D01*
X318418Y61454D01*
X317510Y60757D01*
X316814Y59850D01*
X316376Y58792D01*
X316226Y57657D01*
X316376Y56523D01*
X316814Y55466D01*
X317510Y54558D01*
X318418Y53861D01*
X319476Y53423D01*
X320610Y53273D01*
X321745Y53423D01*
X322802Y53861D01*
X323710Y54558D01*
X324407Y55466D01*
X324845Y56523D01*
X324994Y57657D01*
X324845Y58792D01*
X324407Y59850D01*
X323710Y60757D01*
X322802Y61454D01*
X321745Y61892D01*
X320610Y62041D01*
D02*
G37*
G36*
X140176Y53365D02*
X136827D01*
Y50803D01*
X140176D01*
Y53365D01*
D02*
G37*
G36*
X134827D02*
X131477D01*
Y50803D01*
X134827D01*
Y53365D01*
D02*
G37*
G36*
X130531Y52248D02*
X128559D01*
Y50375D01*
X130531D01*
Y52248D01*
D02*
G37*
G36*
X126559D02*
X124587D01*
Y50375D01*
X126559D01*
Y52248D01*
D02*
G37*
G36*
X140176Y48803D02*
X136827D01*
Y46241D01*
X140176D01*
Y48803D01*
D02*
G37*
G36*
X341295Y48332D02*
Y44878D01*
X344749D01*
X344725Y45065D01*
X344267Y46171D01*
X343538Y47120D01*
X342588Y47849D01*
X341482Y48307D01*
X341295Y48332D01*
D02*
G37*
G36*
X321610D02*
Y44878D01*
X325064D01*
X325040Y45065D01*
X324582Y46171D01*
X323853Y47120D01*
X322903Y47849D01*
X321797Y48307D01*
X321610Y48332D01*
D02*
G37*
G36*
X339295D02*
X339108Y48307D01*
X338002Y47849D01*
X337053Y47120D01*
X336324Y46171D01*
X335866Y45065D01*
X335841Y44878D01*
X339295D01*
Y48332D01*
D02*
G37*
G36*
X319610D02*
X319423Y48307D01*
X318317Y47849D01*
X317368Y47120D01*
X316639Y46171D01*
X316181Y45065D01*
X316156Y44878D01*
X319610D01*
Y48332D01*
D02*
G37*
G36*
X344749Y42878D02*
X341295D01*
Y39424D01*
X341482Y39448D01*
X342588Y39907D01*
X343538Y40635D01*
X344267Y41585D01*
X344725Y42691D01*
X344749Y42878D01*
D02*
G37*
G36*
X325064D02*
X321610D01*
Y39424D01*
X321797Y39448D01*
X322903Y39907D01*
X323853Y40635D01*
X324582Y41585D01*
X325040Y42691D01*
X325064Y42878D01*
D02*
G37*
G36*
X339295D02*
X335841D01*
X335866Y42691D01*
X336324Y41585D01*
X337053Y40635D01*
X338002Y39907D01*
X339108Y39448D01*
X339295Y39424D01*
Y42878D01*
D02*
G37*
G36*
X319610D02*
X316156D01*
X316181Y42691D01*
X316639Y41585D01*
X317368Y40635D01*
X318317Y39907D01*
X319423Y39448D01*
X319610Y39424D01*
Y42878D01*
D02*
G37*
G36*
X194015Y36633D02*
X191157D01*
Y34465D01*
X194015D01*
Y36633D01*
D02*
G37*
G36*
X189157D02*
X186300D01*
Y34465D01*
X189157D01*
Y36633D01*
D02*
G37*
G36*
X226987Y37420D02*
X222260D01*
Y32398D01*
X226987D01*
Y37420D01*
D02*
G37*
G36*
X220260D02*
X215532D01*
Y32398D01*
X220260D01*
Y37420D01*
D02*
G37*
G36*
X182853D02*
X178126D01*
Y32398D01*
X182853D01*
Y37420D01*
D02*
G37*
G36*
X176126D02*
X171398D01*
Y32398D01*
X176126D01*
Y37420D01*
D02*
G37*
G36*
X194015Y32465D02*
X191157D01*
Y30296D01*
X194015D01*
Y32465D01*
D02*
G37*
G36*
X189157D02*
X186300D01*
Y30296D01*
X189157D01*
Y32465D01*
D02*
G37*
G36*
X340295Y34482D02*
X339161Y34333D01*
X338103Y33895D01*
X337195Y33198D01*
X336499Y32290D01*
X336061Y31233D01*
X335911Y30098D01*
X336061Y28964D01*
X336499Y27907D01*
X337195Y26998D01*
X338103Y26302D01*
X339161Y25864D01*
X340295Y25714D01*
X341430Y25864D01*
X342487Y26302D01*
X343395Y26998D01*
X344092Y27907D01*
X344530Y28964D01*
X344679Y30098D01*
X344530Y31233D01*
X344092Y32290D01*
X343395Y33198D01*
X342487Y33895D01*
X341430Y34333D01*
X340295Y34482D01*
D02*
G37*
G36*
X320610D02*
X319476Y34333D01*
X318418Y33895D01*
X317510Y33198D01*
X316814Y32290D01*
X316376Y31233D01*
X316226Y30098D01*
X316376Y28964D01*
X316814Y27907D01*
X317510Y26998D01*
X318418Y26302D01*
X319476Y25864D01*
X320610Y25714D01*
X321745Y25864D01*
X322802Y26302D01*
X323710Y26998D01*
X324407Y27907D01*
X324845Y28964D01*
X324994Y30098D01*
X324845Y31233D01*
X324407Y32290D01*
X323710Y33198D01*
X322802Y33895D01*
X321745Y34333D01*
X320610Y34482D01*
D02*
G37*
G36*
X226987Y30398D02*
X222260D01*
Y25375D01*
X226987D01*
Y30398D01*
D02*
G37*
G36*
X220260D02*
X215532D01*
Y25375D01*
X220260D01*
Y30398D01*
D02*
G37*
G36*
X104610Y39743D02*
X101162D01*
Y37181D01*
X104610D01*
Y39743D01*
D02*
G37*
G36*
X99054Y38444D02*
X95508D01*
Y37063D01*
X99054D01*
Y38444D01*
D02*
G37*
G36*
X99428Y61913D02*
X95882D01*
Y60532D01*
X99428D01*
Y61913D01*
D02*
G37*
G36*
X109763Y61795D02*
X106315D01*
Y59233D01*
X109763D01*
Y61795D01*
D02*
G37*
G36*
X104315D02*
X100867D01*
Y59233D01*
X104315D01*
Y61795D01*
D02*
G37*
G36*
X140350Y25507D02*
X137000D01*
Y22945D01*
X140350D01*
Y25507D01*
D02*
G37*
G36*
X165547Y20945D02*
X162197D01*
Y14249D01*
X165547D01*
Y20945D01*
D02*
G37*
G36*
X160197D02*
X156847D01*
Y14249D01*
X160197D01*
Y20945D01*
D02*
G37*
G36*
X182853Y18720D02*
X178126D01*
Y13697D01*
X182853D01*
Y18720D01*
D02*
G37*
G36*
X176126D02*
X171398D01*
Y13697D01*
X176126D01*
Y18720D01*
D02*
G37*
G36*
X206992Y19866D02*
X202008D01*
X197024D01*
X197272Y19268D01*
X197646Y18780D01*
X197922Y17983D01*
X197446Y17363D01*
X197147Y16641D01*
X197045Y15866D01*
X197147Y15091D01*
X197446Y14369D01*
X197922Y13749D01*
X198542Y13273D01*
X199264Y12974D01*
X200039Y12872D01*
X203976D01*
X204751Y12974D01*
X205473Y13273D01*
X206094Y13749D01*
X206569Y14369D01*
X206869Y15091D01*
X206971Y15866D01*
X206869Y16641D01*
X206569Y17363D01*
X206094Y17983D01*
X206369Y18780D01*
X206744Y19268D01*
X206992Y19866D01*
D02*
G37*
G36*
X193129Y12091D02*
X191157D01*
Y10217D01*
X193129D01*
Y12091D01*
D02*
G37*
G36*
X189157D02*
X187186D01*
Y10217D01*
X189157D01*
Y12091D01*
D02*
G37*
G36*
X182853Y11697D02*
X178126D01*
Y6674D01*
X182853D01*
Y11697D01*
D02*
G37*
G36*
X176126D02*
X171398D01*
Y6674D01*
X176126D01*
Y11697D01*
D02*
G37*
G36*
X55713Y25063D02*
X52166D01*
Y23682D01*
X55713D01*
Y25063D01*
D02*
G37*
G36*
X50058Y24945D02*
X46610D01*
Y22383D01*
X50058D01*
Y24945D01*
D02*
G37*
G36*
X44610D02*
X41162D01*
Y22383D01*
X44610D01*
Y24945D01*
D02*
G37*
G36*
X38582Y23961D02*
X36610D01*
Y22087D01*
X38582D01*
Y23961D01*
D02*
G37*
G36*
X99054Y25063D02*
X95508D01*
Y23682D01*
X99054D01*
Y25063D01*
D02*
G37*
G36*
X110058Y24945D02*
X106610D01*
Y22383D01*
X110058D01*
Y24945D01*
D02*
G37*
G36*
X104610D02*
X101162D01*
Y22383D01*
X104610D01*
Y24945D01*
D02*
G37*
G36*
X120098Y19310D02*
X117535D01*
Y17142D01*
X120098D01*
Y19310D01*
D02*
G37*
G36*
X115535D02*
X112973D01*
Y17142D01*
X115535D01*
Y19310D01*
D02*
G37*
G36*
X128168Y16028D02*
X126197D01*
Y14154D01*
X128168D01*
Y16028D01*
D02*
G37*
G36*
X124197D02*
X122225D01*
Y14154D01*
X124197D01*
Y16028D01*
D02*
G37*
G36*
X135000Y16452D02*
X131650D01*
Y13890D01*
X135000D01*
Y16452D01*
D02*
G37*
G36*
X120098Y15142D02*
X117535D01*
Y12973D01*
X120098D01*
Y15142D01*
D02*
G37*
G36*
X115535D02*
X112973D01*
Y12973D01*
X115535D01*
Y15142D01*
D02*
G37*
G36*
X135000Y11890D02*
X131650D01*
Y9328D01*
X135000D01*
Y11890D01*
D02*
G37*
%LPD*%
D19*
X360005Y200000D02*
G03*
X360000Y200005I-5J0D01*
G01*
X360005Y200000D02*
G03*
X360000Y200005I-5J0D01*
G01*
X360000Y-5D02*
G03*
X360005Y0I0J5D01*
G01*
X360000Y-5D02*
G03*
X360005Y0I0J5D01*
G01*
X0Y200005D02*
G03*
X-5Y200000I0J-5D01*
G01*
X0Y200005D02*
G03*
X-5Y200000I0J-5D01*
G01*
Y0D02*
G03*
X0Y-5I5J0D01*
G01*
X-5Y0D02*
G03*
X0Y-5I5J0D01*
G01*
X360005Y200000D02*
X360005Y0D01*
X0Y200005D02*
X360000Y200005D01*
X0Y-5D02*
X360000Y-5D01*
X-5Y0D02*
Y200000D01*
D20*
X267717Y182087D02*
D03*
X285433D02*
D03*
D21*
X181150Y167339D02*
D03*
Y186039D02*
D03*
X221260Y12697D02*
D03*
Y31398D02*
D03*
X177126Y12697D02*
D03*
Y31398D02*
D03*
D22*
X190157Y13091D02*
D03*
Y19193D02*
D03*
X125197Y23130D02*
D03*
Y17028D02*
D03*
X127559Y53248D02*
D03*
Y59350D02*
D03*
X120472D02*
D03*
Y53248D02*
D03*
X127165Y97146D02*
D03*
Y91043D02*
D03*
X120472Y97244D02*
D03*
Y91142D02*
D03*
X127165Y133760D02*
D03*
Y127657D02*
D03*
X120472D02*
D03*
Y133760D02*
D03*
X127165Y165453D02*
D03*
Y171555D02*
D03*
X120079D02*
D03*
Y165453D02*
D03*
X35610Y24961D02*
D03*
Y31063D02*
D03*
X29000Y74000D02*
D03*
Y67898D02*
D03*
X36417Y74016D02*
D03*
Y67913D02*
D03*
Y105413D02*
D03*
Y99311D02*
D03*
X28543Y105315D02*
D03*
Y99213D02*
D03*
X35610Y142657D02*
D03*
Y136555D02*
D03*
X28110Y142657D02*
D03*
Y136555D02*
D03*
X35256Y186260D02*
D03*
Y180157D02*
D03*
X27756Y186260D02*
D03*
Y180157D02*
D03*
D23*
X190157Y33465D02*
D03*
Y26378D02*
D03*
D24*
X116535Y24016D02*
D03*
Y16142D02*
D03*
D25*
X113779Y53445D02*
D03*
Y59153D02*
D03*
X114173Y96949D02*
D03*
Y91240D02*
D03*
X113779Y133563D02*
D03*
Y127854D02*
D03*
X112992Y166043D02*
D03*
Y171752D02*
D03*
D26*
X117008Y31063D02*
D03*
X123110D02*
D03*
D27*
X135827Y79724D02*
D03*
X143701D02*
D03*
Y153543D02*
D03*
X135827D02*
D03*
D28*
X161197Y21945D02*
D03*
X161024Y58858D02*
D03*
X160807Y96555D02*
D03*
Y171102D02*
D03*
Y133602D02*
D03*
D29*
X136000Y31000D02*
D03*
Y21945D02*
D03*
Y12890D02*
D03*
X135827Y67913D02*
D03*
Y58858D02*
D03*
Y49803D02*
D03*
X135610Y105610D02*
D03*
Y96555D02*
D03*
Y87500D02*
D03*
Y180157D02*
D03*
Y171102D02*
D03*
Y162047D02*
D03*
Y142657D02*
D03*
Y133602D02*
D03*
Y124547D02*
D03*
D30*
X115157Y67913D02*
D03*
X126378D02*
D03*
X114567Y105512D02*
D03*
X125787D02*
D03*
X125610Y142657D02*
D03*
X114390D02*
D03*
X125610Y180157D02*
D03*
X114390D02*
D03*
D31*
X105610Y175039D02*
D03*
Y185276D02*
D03*
X45610Y25945D02*
D03*
Y36181D02*
D03*
X46000Y62882D02*
D03*
Y73118D02*
D03*
X45610Y100492D02*
D03*
Y110728D02*
D03*
Y137539D02*
D03*
Y147776D02*
D03*
Y175039D02*
D03*
Y185276D02*
D03*
X105315Y62795D02*
D03*
Y73032D02*
D03*
X105610Y25945D02*
D03*
Y36181D02*
D03*
Y100492D02*
D03*
Y110728D02*
D03*
Y137421D02*
D03*
Y147658D02*
D03*
D32*
X29146Y61000D02*
D03*
X34854D02*
D03*
X28543Y92520D02*
D03*
X34252D02*
D03*
X28146Y130000D02*
D03*
X33854D02*
D03*
X28110Y172658D02*
D03*
X33819D02*
D03*
D33*
X56713Y36063D02*
D03*
Y31063D02*
D03*
Y26063D02*
D03*
X94508Y36063D02*
D03*
Y31063D02*
D03*
Y26063D02*
D03*
X57087Y72913D02*
D03*
Y67913D02*
D03*
Y62913D02*
D03*
X94882Y72913D02*
D03*
Y67913D02*
D03*
Y62913D02*
D03*
X56713Y185158D02*
D03*
Y180157D02*
D03*
Y175157D02*
D03*
X94508Y185158D02*
D03*
Y180157D02*
D03*
Y175157D02*
D03*
X56713Y110610D02*
D03*
Y105610D02*
D03*
Y100610D02*
D03*
X94508Y110610D02*
D03*
Y105610D02*
D03*
Y100610D02*
D03*
X56713Y147658D02*
D03*
Y142657D02*
D03*
Y137657D02*
D03*
X94508Y147658D02*
D03*
Y142657D02*
D03*
Y137657D02*
D03*
D34*
X13110Y184980D02*
D03*
Y175335D02*
D03*
D58*
X220000Y13000D02*
X220303Y12697D01*
X215020Y17980D02*
X220000Y13000D01*
X220957D01*
X214000D02*
X220000D01*
X220303Y12697D02*
X221260D01*
X218697D02*
X220303D01*
X214000Y8000D02*
X218697Y12697D01*
X174000Y162000D02*
X176106D01*
X181150Y167043D01*
Y167339D01*
X174000Y172000D02*
X176784D01*
X181150Y167634D01*
Y167339D02*
Y167634D01*
X174000Y167000D02*
X180811D01*
X181150Y167339D01*
X13445Y175000D02*
X19000D01*
X13110Y175335D02*
X13445Y175000D01*
X221563Y13000D02*
X228000D01*
X221260Y12697D02*
X221563Y13000D01*
X220957D02*
X221260Y12697D01*
D59*
X13110Y53563D02*
Y87657D01*
Y53563D02*
X34589Y32085D01*
X22000Y57000D02*
X24000Y55000D01*
X22000Y57000D02*
Y104000D01*
X24000Y55000D02*
X32976D01*
X18342Y107658D02*
X22000Y104000D01*
X32976Y55000D02*
X34854Y56879D01*
Y61000D01*
X131276Y79724D02*
X135827D01*
X135610Y87500D02*
X135827Y87283D01*
Y79724D02*
Y87283D01*
X190157Y19193D02*
Y26378D01*
X190413Y26122D01*
X201752D01*
X202008Y25866D01*
X25657Y142657D02*
X28110D01*
X23004Y140004D02*
X25657Y142657D01*
X23004Y133004D02*
Y140004D01*
X13110Y137657D02*
X21000Y145547D01*
Y156000D01*
X33734Y168734D01*
Y172573D01*
X17658Y127657D02*
X23004Y133004D01*
X28576Y142657D02*
X35610D01*
X13110Y127657D02*
X17658D01*
X13110Y107658D02*
X18342D01*
X28543Y105315D02*
Y107457D01*
X18342Y117657D02*
X28543Y107457D01*
X13110Y117657D02*
X18342D01*
X123110Y25118D02*
X125098Y23130D01*
X125197D01*
X122008Y24016D02*
X123110Y25118D01*
X116535Y24016D02*
X122008D01*
X123110Y25118D02*
Y31063D01*
X134567D02*
X135512Y30118D01*
X123110Y31063D02*
X134567D01*
X94508D02*
X117008D01*
X119549Y58427D02*
X120472Y59350D01*
X118959Y58427D02*
X119549D01*
X113976Y53445D02*
X118959Y58427D01*
X113779Y53445D02*
X113976D01*
X113779Y59153D02*
X114469Y59842D01*
Y67224D01*
X115157Y67913D01*
X126969Y59941D02*
X127559Y59350D01*
X126969Y59941D02*
Y67323D01*
X126378Y67913D02*
X126969Y67323D01*
X126378Y67913D02*
X135827D01*
X94882D02*
X115157D01*
X120374Y97244D02*
X120472D01*
X114370Y91240D02*
X120374Y97244D01*
X114173Y91240D02*
X114370D01*
X114173Y96949D02*
X114370Y97146D01*
Y105315D01*
X114567Y105512D01*
X126476Y97835D02*
X127165Y97146D01*
X126476Y97835D02*
Y104823D01*
X125787Y105512D02*
X126476Y104823D01*
X135512Y105512D02*
X135610Y105610D01*
X125787Y105512D02*
X135512D01*
X114469Y105610D02*
X114567Y105512D01*
X94508Y105610D02*
X114469D01*
X125610Y142657D02*
X135610D01*
X119549Y132837D02*
X120472Y133760D01*
X118959Y132837D02*
X119549D01*
X113976Y127854D02*
X118959Y132837D01*
X113779Y127854D02*
X113976D01*
X126388Y134537D02*
X127165Y133760D01*
X126388Y134537D02*
Y141880D01*
X125610Y142657D02*
X126388Y141880D01*
X113779Y133563D02*
X114085Y133868D01*
Y142352D01*
X114390Y142657D01*
X94508D02*
X114390D01*
X118701Y171555D02*
X120079D01*
X113189Y166043D02*
X118701Y171555D01*
X112992Y166043D02*
X113189D01*
X126388Y172333D02*
X127165Y171555D01*
X126388Y172333D02*
Y179380D01*
X125610Y180157D02*
X126388Y179380D01*
X125610Y180157D02*
X135610D01*
X112992Y171752D02*
X113691Y172451D01*
Y179459D01*
X114390Y180157D01*
X94508D02*
X114390D01*
X28543Y67913D02*
X28844Y67612D01*
Y61301D02*
X29146Y61000D01*
X28844Y61301D02*
Y67612D01*
X36417Y62563D02*
Y67913D01*
X34854Y61000D02*
X36417Y62563D01*
X35610Y31063D02*
X56713D01*
X34589Y31986D02*
Y32085D01*
Y31986D02*
X35512Y31063D01*
X35610D01*
X36417Y67913D02*
X57087D01*
X28543Y92520D02*
Y99213D01*
X35256Y174094D02*
Y180157D01*
X33819Y172658D02*
X35256Y174094D01*
X28642Y105413D02*
X36417D01*
X28543Y105315D02*
X28642Y105413D01*
X56614Y105512D02*
X56713Y105610D01*
X36516Y105512D02*
X56614D01*
X36417Y105413D02*
X36516Y105512D01*
X27756Y180157D02*
X27933Y179980D01*
Y172835D02*
Y179980D01*
Y172835D02*
X28110Y172658D01*
Y130157D02*
Y136555D01*
X35610Y142657D02*
X56713D01*
X35256Y180157D02*
X56713D01*
X33734Y172573D02*
X33819Y172658D01*
D60*
X174370Y152559D02*
D03*
X13110Y147658D02*
D03*
Y137657D02*
D03*
Y127657D02*
D03*
Y117657D02*
D03*
Y107658D02*
D03*
Y97658D02*
D03*
Y87657D02*
D03*
D61*
X164370Y152559D02*
D03*
D62*
X272150Y125197D02*
D03*
X194071Y80020D02*
D03*
D63*
X289213Y102657D02*
D03*
X177008D02*
D03*
D64*
X320610Y71437D02*
D03*
Y57657D02*
D03*
Y43878D02*
D03*
Y30098D02*
D03*
X340295Y71437D02*
D03*
Y57657D02*
D03*
Y43878D02*
D03*
Y30098D02*
D03*
X320610Y172716D02*
D03*
Y158937D02*
D03*
Y145158D02*
D03*
Y131378D02*
D03*
X340295Y172716D02*
D03*
Y158937D02*
D03*
Y145158D02*
D03*
Y131378D02*
D03*
D65*
X202008Y15866D02*
D03*
Y25866D02*
D03*
D66*
Y20866D02*
D03*
D67*
X13110Y157658D02*
D03*
D68*
X214000Y18000D02*
D03*
Y8000D02*
D03*
X174000Y162000D02*
D03*
Y172000D02*
D03*
Y167000D02*
D03*
X19000Y175000D02*
D03*
X228000Y13000D02*
D03*
X214000D02*
D03*
D69*
X142250Y147000D02*
D03*
Y138000D02*
D03*
Y129000D02*
D03*
X135500Y7500D02*
D03*
X131000D02*
D03*
X128750Y84000D02*
D03*
Y12000D02*
D03*
X126500Y7500D02*
D03*
X124250Y84000D02*
D03*
Y12000D02*
D03*
X122000Y7500D02*
D03*
X119750Y84000D02*
D03*
X117500Y7500D02*
D03*
X115250Y84000D02*
D03*
X113000Y7500D02*
D03*
X108500Y169500D02*
D03*
Y124500D02*
D03*
Y88500D02*
D03*
X110750Y84000D02*
D03*
Y21000D02*
D03*
X108500Y16500D02*
D03*
X110750Y12000D02*
D03*
X108500Y7500D02*
D03*
X104000Y169500D02*
D03*
X106250Y165000D02*
D03*
Y129000D02*
D03*
X104000Y124500D02*
D03*
X106250Y93000D02*
D03*
X104000Y88500D02*
D03*
X106250Y84000D02*
D03*
Y21000D02*
D03*
X104000Y16500D02*
D03*
X106250Y12000D02*
D03*
X104000Y7500D02*
D03*
X98000Y193500D02*
D03*
X99500Y190500D02*
D03*
X98000Y157500D02*
D03*
X99500Y154500D02*
D03*
X98000Y151500D02*
D03*
X99500Y118500D02*
D03*
X98000Y115500D02*
D03*
Y43500D02*
D03*
X99500Y40500D02*
D03*
X95000Y193500D02*
D03*
X96500Y190500D02*
D03*
X95000Y157500D02*
D03*
X96500Y154500D02*
D03*
X95000Y151500D02*
D03*
X96500Y118500D02*
D03*
X95000Y115500D02*
D03*
Y43500D02*
D03*
X96500Y40500D02*
D03*
X57500Y58500D02*
D03*
Y130500D02*
D03*
X53000Y19500D02*
D03*
X39500Y136500D02*
D03*
X54500Y130500D02*
D03*
X53000Y169500D02*
D03*
X56000Y19500D02*
D03*
X57500Y22500D02*
D03*
X51500D02*
D03*
X45500Y130500D02*
D03*
X42500D02*
D03*
X56000Y169500D02*
D03*
X45500Y94500D02*
D03*
X44000Y169500D02*
D03*
X51500Y130500D02*
D03*
X47000Y19500D02*
D03*
X48500Y94500D02*
D03*
X51500D02*
D03*
X41000Y19500D02*
D03*
X54500Y58500D02*
D03*
X39500Y94500D02*
D03*
X50000Y169500D02*
D03*
X47000D02*
D03*
X48500Y130500D02*
D03*
X39500D02*
D03*
X53000Y133500D02*
D03*
X51500Y58500D02*
D03*
X42500Y94500D02*
D03*
X50000Y19500D02*
D03*
X54500Y94500D02*
D03*
X57500D02*
D03*
X38000Y19500D02*
D03*
X44000D02*
D03*
X56000Y133500D02*
D03*
M02*
